<?xml version="1.0" encoding="UTF-8" standalone="no"?>
<!-- Created with Inkscape (http://www.inkscape.org/) -->

<svg
   version="1.1"
   id="svg2"
   xml:space="preserve"
   width="1632"
   height="1056"
   viewBox="0 0 1632 1056"
   xmlns="http://www.w3.org/2000/svg"
   xmlns:svg="http://www.w3.org/2000/svg"><defs
     id="defs6"><clipPath
       clipPathUnits="userSpaceOnUse"
       id="clipPath22"><path
         d="M 0,792 H 1224 V 0 H 0 Z"
         id="path20" /></clipPath></defs><g
     id="g8"
     transform="matrix(1.3333333,0,0,-1.3333333,0,1056)"><g
       id="g16"><g
         id="g18"
         clip-path="url(#clipPath22)"><g
           id="g24"
           transform="translate(742.4209,338.8955)"><path
             d="m 0,0 c -3.647,-27.115 -15.926,-53.234 -35.5,-72.585 -10.763,-10.837 -23.471,-19.649 -37.041,-26.642 -14.619,-7.327 -30.084,-13.659 -46.425,-15.768 -20.17,-3.155 -41.022,-1.028 -60.578,4.622 -0.687,0.125 -1.256,0.529 -1.718,1.025 -2.058,-0.23 -3.91,0.809 -5.817,1.388 -18.235,6.423 -35.62,15.804 -49.985,28.811 -2.216,2.168 -4.678,4.185 -6.428,6.766 3.011,-0.684 5.933,-1.727 8.939,-2.444 17.824,-4.438 36.211,-6.598 54.58,-6.5 2.282,-0.015 4.613,0.495 6.848,-0.221 0.692,0.263 1.381,0.579 2.133,0.592 8.617,0.575 17.145,2.059 25.54,4.048 0.337,0.042 1.007,0.137 1.344,0.179 6.751,2.013 13.551,4.099 19.906,7.209 11.114,5.164 21.157,12.579 29.367,21.643 4.705,4.53 8.948,9.52 12.62,14.899 2.438,4.254 4.848,8.555 6.464,13.2 2.609,6.965 3.362,14.435 3.681,21.809 0.156,2.196 0.142,4.461 0.794,6.574 2.29,2.771 4.308,6.427 3.07,10.103 -0.683,-1.015 -0.512,-2.365 -1.149,-3.418 -0.859,-2.334 -2.969,-3.804 -4.969,-5.109 -2.979,-1.902 -6.515,-2.702 -9.493,-4.613 -4.881,-2.976 -9.314,-6.803 -12.583,-11.512 0.226,3.523 0.573,7.106 1.925,10.4 1.621,3.888 4.58,6.98 7.107,10.288 2.221,2.981 4.977,5.623 6.552,9.045 1.773,3.57 2.018,7.729 1.255,11.597 -0.797,4.24 -2.539,8.232 -4.432,12.092 l 0.046,0.183 c -0.905,1.135 -1.478,2.463 -2.17,3.722 -2.041,3.813 -4.433,7.424 -6.557,11.192 -2.009,3.483 -2.928,7.479 -3.366,11.434 -0.083,4.126 -1.256,8.248 -3.468,11.739 0.706,-3.101 0.457,-6.253 0.18,-9.395 0.181,-6.378 -1.445,-12.666 -3.823,-18.543 -0.85,2.586 -2.041,5.062 -3.616,7.291 -2.659,3.859 -6.224,7.021 -8.81,10.935 -2.969,4.539 -4.294,10.057 -7.956,14.164 -1.145,1.374 -2.738,2.238 -4.017,3.459 -0.849,0.179 -1.866,0.266 -2.438,0.997 8.519,3.092 16.84,7.195 23.582,13.328 4.529,4.025 8.191,9.097 10.093,14.871 2.48,7.292 2.129,15.644 -1.621,22.457 -1.855,4.021 -4.414,7.719 -7.433,10.954 -2.545,2.182 -5.57,4.369 -9.041,4.469 0.895,-2.705 2.285,-5.485 1.643,-8.416 -1.011,-4.025 -4.109,-7.043 -6.876,-9.965 -2.415,-2.623 -4.972,-5.118 -7.766,-7.342 -6.741,-5.545 -14.739,-9.179 -22.151,-13.7 -5.125,-3.133 -9.608,-7.608 -11.669,-13.333 -1.906,-4.92 -2.044,-10.447 -0.604,-15.51 -1.731,1.507 -2.756,3.566 -4.081,5.394 -1.487,3.087 -1.816,6.611 -1.82,9.988 0.258,6.441 2.461,12.721 6.021,18.083 1.598,2.26 3.357,4.535 5.809,5.936 4.664,2.871 9.24,6.23 12.144,10.966 1.916,2.955 2.904,6.433 3.141,9.919 l -0.255,0.336 c -2.18,-5.481 -5.897,-10.305 -10.666,-13.806 -4.719,-3.505 -9.817,-6.542 -15.192,-8.931 -7.96,-4.103 -13.75,-11.155 -18.941,-18.23 -1.64,-2.086 -3.043,-4.36 -4.849,-6.309 -2.401,-3.514 -5.429,-6.638 -8.634,-9.45 -4.59,-3.955 -10.598,-6.823 -16.799,-6.157 -2.248,0.125 -4.34,1.241 -5.851,2.873 -0.914,0.849 -1.514,2.044 -2.669,2.613 -0.34,-1.566 -0.096,-3.206 0.707,-4.593 -0.9,-0.101 -1.8,-0.222 -2.696,-0.351 -2.6,1.476 -4.687,3.727 -6.27,6.231 -3.884,6.326 -4.295,14.095 -3.459,21.285 0.803,7.323 3.171,14.343 5.799,21.193 0.291,-0.137 0.48,-0.353 0.568,-0.638 1.389,-1.99 2.567,-4.116 3.838,-6.184 0.511,-0.781 0.858,-1.719 1.68,-2.247 4.299,14.022 12.232,26.813 22.136,37.6 7.162,7.599 15.441,14.297 24.695,19.177 17.118,9.749 37.028,13.741 56.602,14.122 2.101,-0.046 4.22,0.193 6.308,-0.133 -6.673,-4.709 -13.331,-9.437 -19.999,-14.151 14.749,0.157 29.543,-1.184 43.926,-4.488 17.316,-3.919 34.323,-10.737 48.143,-22.03 1.002,-0.803 1.948,-1.667 2.872,-2.563 l 0.194,-0.023 c -6.257,-1.893 -12.56,-3.648 -18.858,-5.417 0.161,-0.133 0.471,-0.39 0.633,-0.519 14.411,-6.657 27.478,-16.176 38.321,-27.727 11.47,-12.289 20.316,-27.142 24.92,-43.315 -4.59,1.278 -9.014,3.12 -13.65,4.223 0.403,-1.296 0.934,-2.559 1.22,-3.886 C -1.879,65.529 0.729,49.091 1.635,32.643 2.078,21.749 1.782,10.769 0,0 m -196.338,-6.928 c -1.094,0.202 -2.097,0.685 -3.13,1.062 -0.725,-0.107 -0.905,-0.873 -0.97,-1.48 -0.074,-1.319 -0.124,-2.633 -0.277,-3.941 1.561,0.372 1.288,2.26 1.542,3.459 1.307,-0.428 2.613,-1.162 4.022,-1.02 1.247,1.259 0.632,3.322 0.91,4.925 1.958,-0.413 3.846,-1.048 5.776,-1.566 0.236,0.114 0.697,0.339 0.933,0.449 0.213,2.155 0.429,4.305 0.688,6.451 1.612,-2.067 3.385,-4.24 3.837,-6.89 0.364,-1.949 -1.575,-3.209 -3.149,-3.806 -6.52,-2.513 -14.056,-3.073 -19.494,-7.869 0.47,1.833 0.156,3.749 0.373,5.609 0.36,5.454 2.291,11.132 6.676,14.674 1.982,1.797 4.715,2.472 7.338,2.472 0.688,-0.51 1.39,-1.021 2.087,-1.526 -0.425,-2.246 -0.9,-4.502 -0.873,-6.804 -1.809,0.474 -3.698,1.052 -5.582,0.712 -1.27,-1.208 -0.402,-3.316 -0.707,-4.911 m 50.003,-33.896 c 3.071,12.804 6.737,25.736 6.155,39.027 0.375,-0.95 0.748,-1.901 1.16,-2.844 l -0.028,-0.306 c 0.933,-1.25 1.122,-2.858 1.769,-4.255 l -0.037,-0.11 c 1.468,-3.147 2.53,-6.479 3.689,-9.753 0.841,-4.109 1.777,-8.421 1.007,-12.598 0.005,-0.28 0.014,-0.836 0.014,-1.112 0.807,-0.07 0.761,0.735 0.919,1.299 l 0.06,0.065 c 0.789,3.864 1.481,7.825 0.946,11.771 -1.501,9.702 -4.59,19.135 -9.013,27.901 -2.327,4.681 -5.333,8.986 -7.61,13.7 l -0.088,0.004 c -0.387,0.63 -0.78,1.255 -1.172,1.871 5.753,3.841 11.921,6.991 17.929,10.41 2.817,1.626 3.524,5.035 4.406,7.898 0.72,2.081 1.126,4.25 1.805,6.344 2.813,-2.215 5.486,-4.612 7.804,-7.337 5.162,-5.623 9.987,-11.844 12.629,-19.034 0.628,-1.048 0.374,-2.706 1.611,-3.307 -1.012,5.788 -3.158,11.357 -5.808,16.599 -3.879,7.149 -9.185,13.736 -16.218,18.023 -0.577,5.058 -4.811,8.568 -6.242,13.305 -0.503,1.345 -0.61,2.88 -1.542,4.029 -1.326,-2.728 -1.026,-5.986 0.184,-8.697 1.09,-2.811 2.969,-5.316 3.574,-8.302 0.544,-4.195 -0.855,-8.352 -2.503,-12.152 l 0.028,-0.114 c -0.489,-1.017 -0.836,-2.137 -1.542,-3.032 -7.689,-4.155 -15.34,-8.413 -22.589,-13.301 -2.813,-1.871 -5.311,-4.153 -7.92,-6.276 1.049,3.836 3.034,7.429 5.768,10.319 5.01,5.489 9.401,12.57 8.602,20.284 -0.097,1.745 -0.887,3.334 -1.136,5.048 -0.213,-0.275 -0.42,-0.552 -0.623,-0.831 1.487,-4.517 -0.005,-9.441 -2.401,-13.379 -2.309,-4.001 -6.008,-6.891 -9.115,-10.227 -4.544,-4.768 -7.102,-11.237 -7.494,-17.756 -0.351,-5.32 1.74,-10.342 3.459,-15.267 -5.145,-5.385 -11.092,-9.909 -17.123,-14.266 -4.838,-3.555 -10.288,-7.415 -11.941,-13.511 -1.034,-2.798 -1.8,-5.917 -3.892,-8.127 l 0.6,-0.005 c -1.016,-0.813 -1.653,-2.022 -2.775,-2.71 -1.233,-0.915 -2.822,-0.961 -4.262,-1.315 3.126,4.374 5.093,9.46 6.502,14.606 l -0.448,0.445 c -1.256,-3.684 -3.981,-6.574 -6.474,-9.477 -1.851,-2.243 -3.676,-4.784 -6.382,-6.046 -3.241,-0.842 -6.649,-2.279 -10.019,-1.467 1.259,1.025 2.719,1.788 4.072,2.684 3.556,3.042 6.659,6.68 8.57,10.966 1.021,2.063 1.672,4.268 2.485,6.4 2.281,2.757 4.663,5.683 7.997,7.213 3.288,1.383 6.797,2.165 10.283,2.872 3.053,1.075 6.336,2.145 8.51,4.681 1.589,1.691 1.852,4.245 1.16,6.386 -0.887,2.99 -2.988,5.399 -5.112,7.604 -2.18,2.573 -5.112,4.856 -8.598,5.141 -3.371,-0.06 -6.521,-1.674 -9.018,-3.845 -2.919,-2.628 -4.724,-6.203 -6.178,-9.783 -1.492,-3.765 -1.529,-7.865 -2.079,-11.824 -0.526,-4.976 -2.179,-9.768 -4.4,-14.239 -2.6,-5.053 -7.014,-9.183 -12.297,-11.352 -4.719,-1.291 -9.835,-2.821 -14.679,-1.272 -2.415,0.702 -4.913,2.949 -4.105,5.687 -3.177,4.144 -6.63,8.118 -9.179,12.7 -1.113,2.039 -2.189,4.276 -2.055,6.651 0.074,1.42 1.057,2.578 2.221,3.304 0.513,-2.853 1.321,-5.761 3.167,-8.077 0.005,0.914 0,1.805 0.005,2.711 l 0.074,0.1 c 0.102,4.728 0.43,9.455 0.91,14.16 1.538,8.32 4.386,16.347 7.808,24.079 2.304,4.906 4.715,9.813 7.887,14.246 1.547,2.211 3.8,3.796 5.979,5.338 2.818,1.825 5.685,3.636 8.843,4.817 -0.766,0.946 -2.11,0.377 -3.131,0.348 -3.642,-0.294 -7.216,-1.452 -10.222,-3.542 -0.241,-0.165 -0.726,-0.501 -0.966,-0.661 -1.002,-0.804 -1.948,-1.664 -2.895,-2.527 -1.413,0.924 -2.66,2.086 -3.616,3.478 1.381,4.815 3.579,9.325 5.749,13.824 0.721,-0.547 1.437,-1.089 2.193,-1.585 0.227,-0.115 0.679,-0.359 0.906,-0.473 1.491,-0.635 3.116,-0.979 4.742,-1.021 0.198,0.12 0.591,0.369 0.785,0.487 -0.734,0.845 -1.598,1.566 -2.503,2.224 -1.667,1.084 -3.232,2.353 -4.437,3.942 0.637,0.859 1.741,0.119 2.581,0.11 4.386,-0.965 8.898,1.02 11.904,4.167 4.114,4.323 6.354,10.149 7.139,15.988 0.479,3.142 -0.046,6.437 -1.742,9.153 0.379,0 1.136,-0.01 1.515,-0.014 4.318,0.395 8.395,2.104 12.025,4.396 -3.556,-3.947 -5.039,-9.188 -5.998,-14.284 -0.116,-1.327 -0.43,-2.628 -0.5,-3.969 0.425,0.151 0.596,0.579 0.882,0.881 0.665,2.56 1.912,4.921 3.011,7.315 1.704,3.377 3.551,6.914 6.594,9.285 3.108,2.895 7.375,4.117 11.512,4.586 0.128,0.142 0.401,0.422 0.531,0.56 -0.134,0.174 -0.421,0.524 -0.555,0.703 -3.434,1.029 -7.24,0.671 -10.403,-1.015 9.761,8.908 15.228,21.565 25.623,29.862 1.108,0.97 2.369,1.75 3.754,2.246 -3.869,-6.275 -6.423,-13.584 -6.039,-21.014 -0.149,-7.948 4.847,-15.046 11.031,-19.659 2.096,-0.766 2.761,-3.124 4.617,-4.226 0.924,-0.708 2.073,-1.006 3.233,-0.988 -1.104,2.247 -3.334,3.754 -4.184,6.152 -2.734,6.837 -3.491,15.014 0.161,21.671 3.473,6.758 10.621,10.296 17.104,13.622 9.027,4.291 16.729,10.879 23.434,18.18 3.111,3.51 6.525,7.41 6.926,12.284 5.434,-5.163 9.789,-12.105 9.799,-19.787 0.428,-7.134 -2.85,-14.007 -7.495,-19.273 -5.767,-6.39 -13.515,-10.589 -21.425,-13.778 -4.737,-2.104 -9.942,-3.51 -13.913,-6.992 -2.073,-1.783 -3.177,-4.485 -3.154,-7.186 0.19,-0.097 0.573,-0.28 0.767,-0.373 2.332,2 4.377,4.356 7.11,5.845 0.578,-0.868 0.657,-1.921 0.869,-2.918 0.803,-1.897 1.893,-3.68 3.283,-5.219 1.274,-1.484 2.803,-2.847 3.579,-4.69 0.775,-1.728 0.43,-3.653 0.401,-5.476 0.185,0.051 0.55,0.151 0.726,0.202 0.401,2.435 2.156,4.602 1.717,7.167 -0.822,3.812 -4.788,6.073 -5.477,9.923 3.302,-0.776 6.143,-2.982 7.864,-5.867 1.949,-3.106 3.057,-6.625 4.77,-9.845 3.297,-5.918 9.203,-9.924 12.241,-16.021 1.995,-3.721 3.122,-7.906 2.992,-12.142 1.446,0.753 2.664,1.938 3.316,3.441 1.755,4.039 2.909,8.297 4.068,12.533 3.431,-8.095 9.124,-15.092 11.918,-23.478 0.835,-4.184 1.043,-8.618 -0.189,-12.748 -0.906,-3.018 -2.688,-5.692 -4.78,-8.016 -1.838,-2.533 -3.938,-4.89 -5.499,-7.617 -3.154,-5.174 -4.899,-11.142 -5.222,-17.179 -0.117,-3.009 0.175,-6.17 1.648,-8.862 0.296,-0.405 0.484,-1.218 1.154,-0.919 0.245,0.455 0.481,0.91 0.716,1.369 1.906,3.049 3.458,6.4 6.178,8.866 4.516,4.21 9.327,8.257 14.966,10.908 0.766,-8.39 -1.506,-16.71 -4.664,-24.415 -1.505,-4.006 -4.081,-7.479 -6.414,-11.035 -6.539,-9.316 -14.356,-17.895 -23.711,-24.474 4.618,8.648 7.961,18.079 8.788,27.888 0.064,1.998 0.669,4.015 0.225,6 -0.277,-0.556 -0.475,-1.14 -0.595,-1.746 -1.289,-8.577 -5.675,-16.218 -9.411,-23.917 -1.519,-3.152 -3.163,-6.249 -5.019,-9.217 -1.307,-2.076 -3.246,-3.656 -4.558,-5.725 -8.597,-4.901 -18.128,-8.021 -27.788,-10.087 -1.357,-0.324 -2.738,-0.526 -4.1,-0.796 1.833,10.705 4.415,21.261 7.064,31.788 m -99.544,113.703 c -1.335,2.527 -2.258,5.256 -3.459,7.847 -2.318,4.953 -4.031,10.301 -7.697,14.486 4.793,-1.521 9.711,-2.766 14.397,-4.558 4.89,-7.429 7.117,-16.194 8.423,-24.883 -3.985,2.202 -7.827,4.673 -11.664,7.108 m -16.291,10.135 c -0.933,0.428 -1.071,1.503 -1.435,2.338 -1.885,5.091 -4.124,10.149 -7.67,14.331 3.2,-1.039 6.441,-1.981 9.645,-2.996 3.145,-2.582 4.812,-6.445 6.326,-10.122 1.52,-3.51 2.919,-7.075 4.424,-10.599 -3.782,2.321 -7.526,4.696 -11.29,7.048 m -15.833,10.062 c -1.515,3.542 -3.09,7.093 -5.241,10.319 2.53,-0.782 5.052,-1.581 7.591,-2.321 1.044,-0.215 1.589,-1.213 2.193,-1.984 2.826,-3.942 4.793,-8.417 6.423,-12.957 -3.69,2.261 -7.388,4.521 -10.966,6.943 m -14.495,9.115 c -1.154,0.707 -2.151,1.649 -2.738,2.871 1.206,1.7 3.431,0.915 5.084,0.492 1.113,-0.418 2.545,-0.437 3.293,-1.475 1.916,-2.545 3.467,-5.357 4.589,-8.334 -3.449,2.076 -6.82,4.296 -10.228,6.446 m 66.52,-16.769 c 2.217,-0.34 4.378,-1.135 6.525,-1.806 1.344,-1.346 2.374,-3.092 2.826,-4.934 -0.272,-2.615 -0.919,-5.431 -2.461,-7.581 -1.09,5.252 -3.855,9.965 -6.89,14.321 m 3.741,-17.536 c 0.018,-0.786 0.032,-1.572 0.059,-2.362 -0.969,-0.983 -1.943,-2.146 -3.393,-2.376 -1.792,-0.303 -3.56,0.327 -5.241,0.851 -0.624,5.605 -1.944,11.113 -3.662,16.475 -1.052,3.312 -2.655,6.431 -4.714,9.234 3.139,-1.056 6.4,-1.787 9.465,-3.027 3.713,-5.633 7.407,-11.854 7.486,-18.795 M 1.229,75.824 c 4.593,-1.41 9.132,-2.987 13.727,-4.391 -1.99,6.454 -3.666,13.015 -6.196,19.286 -3.533,9.202 -8.188,17.991 -13.932,26.022 -9.591,13.534 -22.21,24.814 -36.335,33.51 -0.083,0.129 -0.254,0.391 -0.337,0.52 4.871,1.396 9.776,2.692 14.628,4.148 -2.212,2.224 -4.576,4.296 -6.907,6.386 -6.927,6.57 -14.966,11.908 -23.494,16.186 -18.083,9 -38.155,13.374 -58.205,15.051 1.108,1.176 2.563,1.925 3.838,2.898 5.375,3.869 10.855,7.59 16.174,11.532 -3.236,0.047 -6.487,0.478 -9.719,0.262 -1.145,-0.445 -2.36,-0.689 -3.583,-0.606 -4.087,0.105 -8.178,0.133 -12.264,0.004 -1.091,-0.091 -2.139,0.198 -3.136,0.598 -1.145,0.179 -2.313,-0.005 -3.454,-0.101 -13.086,-0.759 -26.135,-3.235 -38.381,-7.944 -12.799,-4.852 -24.694,-12.124 -34.71,-21.423 -10.342,-9.473 -18.645,-21.051 -24.639,-33.681 -1.39,2.146 -2.651,4.37 -4.022,6.52 -0.572,0.854 -0.932,1.906 -1.801,2.522 -3.703,-9.257 -7.79,-18.456 -9.807,-28.273 -2.111,-9.395 -2.392,-19.724 1.98,-28.549 -4.71,1.254 -9.327,2.821 -13.976,4.259 -11.835,3.625 -23.623,7.392 -35.468,10.985 -2.964,0.895 -6.409,1.057 -9.138,-0.607 -3.002,-1.782 -4.165,-5.972 -2.553,-9.055 1.533,-3.285 4.889,-4.994 7.794,-6.878 18.156,-11.482 36.28,-23.008 54.612,-34.208 -3.441,-6.567 -6.862,-13.232 -8.76,-20.432 -0.097,-0.661 -0.476,-1.415 -0.125,-2.066 1.183,-2.311 2.775,-4.444 4.83,-6.07 -7.591,-12.74 -12.888,-26.872 -15.173,-41.519 -4.211,-2.172 -6.419,-7.231 -5.365,-11.798 1.463,-7.143 6.598,-12.684 10.856,-18.349 0.262,-4.309 3.721,-7.751 7.619,-9.224 5.406,-2.271 11.464,-1.292 16.931,0.242 1.829,-1.897 4.438,-2.876 7.056,-2.857 3.635,0.253 7.167,1.19 10.64,2.237 4.021,-0.005 8.366,0.05 11.852,2.334 3.782,2.572 5.864,6.846 7.555,10.944 0.955,2.182 1.163,4.713 2.757,6.584 2.576,3.271 6.057,5.668 9.42,8.067 6.681,4.483 12.67,9.909 18.215,15.713 0.43,0.517 1.317,1.038 0.882,1.828 -1.311,3.39 -2.853,6.725 -3.648,10.29 -0.239,1.03 -0.388,2.187 0.24,3.116 2.281,3.836 5.906,6.597 9.384,9.304 3.07,-4.76 5.065,-10.196 5.966,-15.773 1.163,-7.062 0.581,-14.251 -0.555,-21.276 -1.958,-11.527 -5.314,-22.755 -7.951,-34.136 -1.787,-7.089 -3.155,-14.283 -4.397,-21.478 -14.78,-2.32 -29.88,-2.284 -44.711,-0.408 -20.109,2.402 -39.687,7.97 -58.762,14.6 5.531,-6.515 11.206,-12.919 16.904,-19.287 12.223,-12.749 27.405,-22.388 43.446,-29.679 26.094,-11.692 55.415,-16.957 83.869,-13.034 7.586,1.148 15.136,2.742 22.409,5.224 22.584,7.695 44.153,19.195 61.717,35.43 10.247,9.479 19.011,20.57 25.688,32.808 C 3.676,-24.409 8.662,2.771 7.914,29.349 7.577,45.038 5.157,60.635 1.229,75.824"
             style="fill:#1d1d1f;fill-opacity:1;fill-rule:nonzero;stroke:none"
             id="path26" /></g><g
           id="g28"
           transform="translate(635.9951,484.0981)"><path
             d="m 0,0 c 0.057,0.456 0.122,0.907 0.198,1.364 0.179,-0.64 0.359,-1.28 0.544,-1.919 -0.171,-5.212 -2.71,-10.032 -6.146,-13.857 -8.396,-9.6 -20.517,-14.83 -29.447,-23.852 -1.627,-1.627 -2.76,-3.664 -3.555,-5.808 4.917,-0.17 9.894,1.27 13.898,4.134 -0.08,-1.491 -1.38,-2.446 -2.268,-3.5 -3.139,-3.447 -8.051,-4.816 -12.609,-4.43 1.036,-2.983 1.022,-6.464 -0.619,-9.238 -1.125,-1.811 -2.756,-3.697 -5.011,-3.951 1.32,2.841 3.773,5.361 3.65,8.687 -0.184,3.82 -2.24,7.338 -2.117,11.2 0.084,1.688 1.294,2.977 2.31,4.214 -0.325,-1.881 -0.576,-3.81 -0.037,-5.687 1.097,1.919 2.217,3.838 3.716,5.485 1.654,1.825 3.47,3.504 5.393,5.047 7.442,5.856 15.861,10.442 22.805,16.923 C -5.021,-11.044 -0.511,-6.218 0,0"
             style="fill:#1d1d1f;fill-opacity:1;fill-rule:nonzero;stroke:none"
             id="path30" /></g><g
           id="g32"
           transform="translate(558.0752,404.438)"><path
             d="M 0,0 C -1.251,-2.757 -4.226,-4.021 -6.728,-5.389 -5.079,-0.51 -3.916,4.92 0.185,8.453 0.097,5.631 1.256,2.701 0,0 m 12.074,3.708 c -1.056,3.67 -4.465,6.032 -5.697,9.633 0.97,0.621 2.471,0.685 2.978,1.811 -4.086,0.813 -7.965,-1.117 -11.271,-3.294 -2.753,-1.566 -4.72,-4.153 -6.155,-6.911 -2.268,-4.447 -3.363,-9.376 -5.45,-13.902 -0.964,-2.094 -2.774,-4.258 -5.309,-4.163 -2.416,-0.09 -4.433,1.301 -6.474,2.353 0.554,-1.456 1.297,-2.866 2.387,-3.996 2.489,-2.239 6.487,-3.248 9.471,-1.393 1.717,0.938 2.521,3.175 4.632,3.409 5.886,1.65 12.033,3.276 16.926,7.094 2.804,2.182 4.822,5.738 3.962,9.359"
             style="fill:#1d1d1f;fill-opacity:1;fill-rule:nonzero;stroke:none"
             id="path34" /></g><g
           id="g36"
           transform="translate(535.0225,379.0488)"><path
             d="M 0,0 C 0.312,0.404 0.757,0.664 1.187,0.926 0.889,0.343 0.586,-0.24 0.279,-0.823 -1.876,-4.689 -2.699,-9.082 -4.089,-13.24 c -2.652,-8.123 -4.363,-16.5 -6.207,-24.83 -0.303,-1.284 -0.411,-2.606 -0.468,-3.923 3.65,-3.18 4.519,-8.283 3.871,-12.861 -1.909,3.214 -3.653,6.638 -6.353,9.281 -2.765,2.879 -8.093,2.033 -10.065,-1.36 -2.353,-3.823 -1.923,-8.644 -0.865,-12.816 0.772,-3.424 2.36,-6.604 3.125,-10.027 l -0.604,-0.641 c -2.87,3.993 -5.829,8.171 -6.756,13.085 -0.44,2.361 -0.601,4.784 -0.335,7.173 0.373,4.841 3.876,9.54 8.81,10.471 1.977,0.569 4.014,0.15 5.967,-0.297 1.981,9.985 4.78,19.817 8.414,29.332 C -4.032,-6.952 -2.633,-3.09 0,0"
             style="fill:#1d1d1f;fill-opacity:1;fill-rule:nonzero;stroke:none"
             id="path38" /></g><g
           id="g40"
           transform="translate(517.376,330.1836)"><path
             d="m 0,0 c 0.732,0.818 1.947,0.8 2.912,0.48 2.179,-0.837 3.715,-2.968 3.994,-5.259 0.406,-3.443 -0.699,-6.943 -2.571,-9.821 -0.577,-0.785 -1.093,-1.707 -1.986,-2.177 -0.841,-0.079 -1.687,-0.104 -2.525,-0.132 2.232,3.612 0.431,7.94 -0.737,11.608 C -1.296,-3.527 -1.334,-1.401 0,0"
             style="fill:#1d1d1f;fill-opacity:1;fill-rule:nonzero;stroke:none"
             id="path42" /></g><g
           id="g44"
           transform="translate(617.8789,550.9072)"><path
             d="M 0,0 C 6.079,0.499 12.211,0.244 18.314,0.15 18.966,-0.014 20.11,0.423 20.305,-0.527 13.436,-0.4 6.562,-0.287 -0.302,-0.55 Z"
             style="fill:#0d0e0e;fill-opacity:1;fill-rule:nonzero;stroke:none"
             id="path46" /></g><g
           id="g48"
           transform="translate(733.1348,291.0273)"><path
             d="m 0,0 c -6.677,-12.238 -15.44,-23.329 -25.687,-32.808 -17.565,-16.235 -39.134,-27.735 -61.718,-35.43 -7.273,-2.482 -14.823,-4.075 -22.408,-5.224 -28.455,-3.923 -57.776,1.342 -83.87,13.034 -16.041,7.291 -31.223,16.93 -43.446,29.679 -5.698,6.368 -11.373,12.772 -16.904,19.287 19.075,-6.63 38.653,-12.198 58.762,-14.6 14.832,-1.875 29.931,-1.912 44.711,0.408 1.243,7.195 2.61,14.389 4.397,21.478 2.637,11.381 5.993,22.61 7.951,34.136 1.136,7.025 1.718,14.214 0.555,21.276 -0.901,5.577 -2.896,11.013 -5.966,15.773 -3.478,-2.707 -7.103,-5.468 -9.384,-9.304 -0.628,-0.929 -0.479,-2.086 -0.24,-3.116 0.795,-3.565 2.337,-6.9 3.648,-10.29 0.435,-0.79 -0.452,-1.311 -0.881,-1.828 -5.546,-5.804 -11.535,-11.23 -18.216,-15.713 -3.363,-2.399 -6.844,-4.796 -9.42,-8.067 -1.594,-1.871 -1.802,-4.402 -2.757,-6.584 -1.69,-4.098 -3.773,-8.372 -7.555,-10.944 -3.486,-2.284 -7.831,-2.339 -11.852,-2.334 -3.473,-1.047 -7.005,-1.984 -10.64,-2.237 -2.618,-0.019 -5.226,0.96 -7.056,2.857 -5.466,-1.534 -11.525,-2.512 -16.931,-0.242 -3.898,1.474 -7.357,4.915 -7.619,9.225 -4.258,5.664 -9.393,11.205 -10.856,18.348 -1.054,4.568 1.154,9.626 5.365,11.798 2.286,14.648 7.582,28.779 15.173,41.519 -2.054,1.627 -3.647,3.759 -4.83,6.07 -0.35,0.651 0.028,1.405 0.125,2.066 1.898,7.201 5.32,13.866 8.76,20.432 -18.332,11.2 -36.456,22.727 -54.611,34.209 -2.906,1.883 -6.262,3.592 -7.795,6.877 -1.612,3.083 -0.449,7.273 2.553,9.056 2.729,1.663 6.174,1.502 9.138,0.606 11.845,-3.593 23.633,-7.36 35.468,-10.985 4.649,-1.438 9.266,-3.005 13.976,-4.259 -4.372,8.826 -4.09,19.154 -1.98,28.549 2.018,9.818 6.104,19.016 9.808,28.273 0.868,-0.616 1.228,-1.668 1.8,-2.522 1.371,-2.15 2.632,-4.374 4.022,-6.52 5.994,12.631 14.297,24.208 24.639,33.681 10.016,9.299 21.911,16.571 34.71,21.423 12.247,4.709 25.295,7.185 38.381,7.944 1.141,0.096 2.309,0.28 3.454,0.101 6.317,0.285 12.662,0.229 18.983,0.005 3.232,0.215 6.483,-0.216 9.72,-0.263 -5.32,-3.942 -10.8,-7.663 -16.175,-11.531 -1.275,-0.974 -2.73,-1.723 -3.838,-2.899 20.05,-1.677 40.122,-6.051 58.205,-15.051 8.528,-4.277 16.567,-9.616 23.494,-16.186 2.331,-2.09 4.695,-4.162 6.907,-6.385 -4.852,-1.457 -9.757,-2.752 -14.628,-4.149 0.083,-0.129 0.254,-0.39 0.337,-0.52 14.125,-8.696 26.744,-19.975 36.335,-33.51 5.744,-8.031 10.399,-16.82 13.932,-26.022 2.53,-6.271 4.206,-12.832 6.196,-19.286 -4.595,1.405 -9.134,2.981 -13.727,4.391 C 14.443,108.503 16.863,92.906 17.2,77.217 17.948,50.639 12.962,23.459 0,0 m 16.227,117.467 c 4.755,-1.379 9.41,-3.12 14.189,-4.378 -1.51,4.576 -2.576,9.29 -4.077,13.87 -3.15,10.599 -7.223,20.978 -12.754,30.584 -8.57,15.12 -20.751,28.066 -34.849,38.224 -0.572,0.391 -1.112,0.837 -1.592,1.333 4.469,1.153 8.847,2.618 13.321,3.712 -8.279,7.842 -16.586,15.781 -26.191,22.025 -16.978,11.283 -36.959,17.284 -57.021,20.145 -0.804,0.17 -1.811,-0.045 -2.401,0.649 7.166,5.007 14.346,10.006 21.387,15.183 -7.059,0.217 -14.142,0.069 -21.189,0.538 -6.87,0.128 -13.742,0.239 -20.608,-0.023 -2.157,-0.354 -4.35,-0.225 -6.515,-0.464 -10.801,-0.997 -21.569,-2.899 -31.871,-6.336 -26.611,-8.485 -49.44,-27.661 -62.739,-52.067 -2.095,3.231 -4.114,6.515 -6.025,9.855 -0.227,-0.377 -0.467,-0.753 -0.633,-1.162 -3.241,-7.847 -6.631,-15.643 -9.378,-23.679 -3.772,-11.187 -6.534,-23.297 -3.921,-35.05 -13.797,4.324 -27.589,8.633 -41.404,12.873 -4.766,1.562 -10.524,1.25 -14.416,-2.182 -3.043,-2.669 -4.341,-7.121 -3.219,-10.998 0.974,-3.878 3.911,-6.942 7.263,-8.978 17.99,-11.37 35.93,-22.828 54.095,-33.92 -0.823,-1.997 -1.875,-3.89 -2.771,-5.857 -2.364,-4.88 -4.054,-10.061 -5.301,-15.326 1.302,-2.302 2.554,-4.655 4.281,-6.671 -6.562,-11.922 -11.387,-24.841 -13.696,-38.252 -1.505,-1.309 -3.01,-2.683 -3.989,-4.443 -2.171,-3.711 -2.489,-8.297 -1.279,-12.377 1.809,-6.413 6.062,-11.733 10.112,-16.898 0.564,-0.683 0.638,-1.603 0.933,-2.42 1.385,-4.338 4.945,-7.779 9.156,-9.447 5.647,-2.38 12.02,-2.008 17.875,-0.642 4.553,-3.185 10.556,-2.587 15.653,-1.274 1.593,0.351 3.094,1.176 4.756,1.104 4.789,-0.061 9.887,0.822 13.714,3.886 4.309,3.427 6.691,8.569 8.492,13.626 0.54,1.453 0.716,3.116 1.838,4.274 3.583,4.079 8.381,6.767 12.661,10.029 6.391,4.782 11.992,10.492 17.459,16.278 -1.764,4.336 -3.874,8.595 -4.853,13.194 1.39,1.622 2.67,3.487 4.549,4.566 3.143,-7.189 4.114,-15.179 3.305,-22.944 -0.77,-9.238 -3.214,-18.23 -5.388,-27.216 -2.739,-10.695 -5.527,-21.414 -7.227,-32.334 -19.194,-2.858 -38.806,-1.167 -57.728,2.734 -18.812,3.987 -37.042,10.162 -55.253,16.217 4.811,-5.738 9.876,-11.274 14.766,-16.943 6.105,-6.781 11.775,-13.981 18.646,-20.027 14.818,-13.134 32.517,-22.783 51.126,-29.45 16.087,-5.632 33.029,-9.013 50.095,-9.418 17.168,-0.46 34.456,2.183 50.576,8.123 22.727,8.339 44.393,20.458 61.713,37.48 18.705,18.069 31.621,41.785 37.296,67.063 3.671,15.556 4.724,31.631 4.032,47.564 -0.62,12.124 -2.185,24.226 -5.001,36.047"
             style="fill:#ffffff;fill-opacity:1;fill-rule:nonzero;stroke:none"
             id="path50" /></g><g
           id="g52"
           transform="translate(601.8018,491.6514)"><path
             d="m 0,0 c 1.428,-1.829 2.671,-3.842 3.323,-6.085 1.139,-3.519 0.676,-7.315 -0.549,-10.744 5.14,4.459 10.07,9.148 15.175,13.645 -1.559,-4.858 -3.125,-9.717 -4.736,-14.558 -6.741,-5.545 -14.74,-9.18 -22.152,-13.701 -5.124,-3.132 -9.607,-7.61 -11.668,-13.334 -1.905,-4.92 -2.046,-10.447 -0.605,-15.509 -1.73,1.506 -2.756,3.567 -4.079,5.391 -1.489,3.091 -1.815,6.614 -1.821,9.991 0.256,6.439 2.459,12.723 6.018,18.08 1.598,2.262 3.362,4.534 5.81,5.936 4.666,2.874 9.242,6.232 12.144,10.969 C -1.225,-6.965 -0.232,-3.49 0,0"
             style="fill:#ffffff;fill-opacity:1;fill-rule:nonzero;stroke:none"
             id="path54" /></g><g
           id="g56"
           transform="translate(519.0303,441.7002)"><path
             d="M 0,0 C 1.413,8.462 5.776,16.1 10.557,23.109 8.674,15.202 8.354,6.726 10.977,-1.059 c 3.044,5.725 6.604,11.284 11.355,15.762 0.666,0.668 1.441,1.223 2.24,1.717 C 23.14,10.165 21.68,3.909 20.37,-2.375 26.308,5.093 32.378,12.591 36.741,21.119 35.508,15.07 34.112,9.055 32.869,3.01 c -2.401,-3.513 -5.427,-6.636 -8.633,-9.449 -4.59,-3.956 -10.598,-6.825 -16.8,-6.157 -2.246,0.122 -4.34,1.242 -5.848,2.874 -0.917,0.847 -1.518,2.041 -2.671,2.61 -0.34,-1.566 -0.095,-3.203 0.71,-4.59 -0.903,-0.103 -1.802,-0.222 -2.699,-0.354 -2.601,1.477 -4.686,3.726 -6.27,6.233 -0.004,5.766 0.478,11.571 1.934,17.163 C -4.832,7.629 -2.52,3.749 0,0"
             style="fill:#ffffff;fill-opacity:1;fill-rule:nonzero;stroke:none"
             id="path58" /></g><g
           id="g60"
           transform="translate(543.8203,342.0225)"><path
             d="M 0,0 C 1.981,1.798 4.714,2.475 7.337,2.475 8.027,1.962 8.727,1.453 9.427,0.95 9.001,-1.298 8.524,-3.557 8.552,-5.856 6.741,-5.381 4.855,-4.802 2.969,-5.146 1.702,-6.35 2.567,-8.461 2.265,-10.056 c -1.098,0.202 -2.1,0.686 -3.135,1.063 -0.723,-0.109 -0.902,-0.875 -0.969,-1.482 -0.071,-1.317 -0.123,-2.629 -0.274,-3.941 1.559,0.372 1.286,2.263 1.542,3.462 1.303,-0.428 2.613,-1.161 4.022,-1.021 1.243,1.26 0.629,3.321 0.907,4.925 1.957,-0.414 3.849,-1.05 5.778,-1.566 0.236,0.112 0.699,0.338 0.931,0.451 0.213,2.153 0.43,4.304 0.69,6.448 1.612,-2.064 3.385,-4.238 3.839,-6.889 0.364,-1.948 -1.575,-3.209 -3.154,-3.807 -6.518,-2.512 -14.054,-3.071 -19.491,-7.868 0.469,1.834 0.156,3.749 0.374,5.61 C -6.315,-9.219 -4.387,-3.542 0,0"
             style="fill:#ffffff;fill-opacity:1;fill-rule:nonzero;stroke:none"
             id="path62" /></g><g
           id="g64"
           transform="translate(571.4277,257.9414)"><path
             d="m 0,0 c 8.618,0.574 17.147,2.056 25.542,4.046 0.336,0.043 1.008,0.136 1.344,0.179 6.202,-1.37 12.381,-2.865 18.635,-4.003 -3.593,-1.011 -7.257,-1.721 -10.86,-2.69 5.149,-4.136 11.994,-6.905 18.664,-5.528 3.896,0.664 7.204,2.987 10.178,5.452 -2.808,-7.107 -7.37,-13.781 -13.874,-18.001 -3.769,-2.516 -8.222,-3.645 -12.68,-4.143 4.293,-1.115 8.765,-1.435 13.18,-1.036 7.356,0.575 14.301,3.307 20.815,6.605 -6.32,-4.953 -12.579,-9.99 -18.92,-14.92 -20.166,-3.155 -41.018,-1.029 -60.575,4.619 -0.686,0.127 -1.253,0.532 -1.717,1.025 -3.18,3.241 -6.598,6.247 -9.723,9.535 7.104,-0.678 14.21,-1.416 21.32,-2.057 1.494,-0.22 3.006,-0.333 4.515,-0.233 -5.981,2.101 -11.8,4.636 -17.713,6.918 6.953,1.872 13.921,3.698 20.875,5.579 -9.209,0.733 -18.45,1.132 -27.674,1.735 5.413,2.347 11.081,4.073 16.536,6.326 C -1.441,-0.333 -0.751,-0.014 0,0"
             style="fill:#ec2227;fill-opacity:1;fill-rule:nonzero;stroke:none"
             id="path66" /></g><g
           id="g68"
           transform="translate(617.9072,546.124)"><path
             d="M 0,0 C 6.316,0.287 12.665,0.23 18.985,0.004 17.841,-0.438 16.626,-0.682 15.402,-0.603 11.313,-0.494 7.224,-0.466 3.139,-0.598 2.047,-0.687 0.998,-0.4 0,0"
             style="fill:#0e0f10;fill-opacity:1;fill-rule:nonzero;stroke:none"
             id="path70" /></g><g
           id="g72"
           transform="translate(564.9473,526.063)"><path
             d="m 0,0 c 17.117,9.745 37.024,13.739 56.601,14.12 2.098,-0.042 4.221,0.193 6.306,-0.132 C 56.236,9.28 49.575,4.553 42.91,-0.16 c 14.749,0.156 29.541,-1.185 43.927,-4.492 17.316,-3.918 34.32,-10.733 48.143,-22.027 1.002,-0.804 1.948,-1.669 2.87,-2.563 -9.304,1.176 -18.683,-0.381 -27.826,-2.074 11.544,-5.909 21.013,-15.221 28.421,-25.724 -10.665,6.472 -22.418,11.209 -34.67,13.683 8.362,-9.868 14.796,-21.905 15.798,-34.952 -8.272,8.809 -18.786,15.163 -29.551,20.507 5.65,-8.147 8.326,-17.934 9.735,-27.629 0.884,-6.735 1.493,-13.569 1.101,-20.361 -4.085,7.873 -9.904,15 -17.373,19.924 -2.718,1.731 -5.592,3.288 -8.708,4.181 -0.336,-4.463 -0.685,-8.922 -1.016,-13.386 -2.08,2.022 -4.236,3.97 -6.349,5.96 2.921,-7.526 2.709,-15.851 1.573,-23.72 -3.345,4.802 -6.258,9.896 -9.629,14.67 -2.321,2.761 -5.834,4.431 -9.43,4.656 -0.852,0.179 -1.868,0.264 -2.44,0.998 8.518,3.09 16.839,7.191 23.58,13.325 4.529,4.026 8.193,9.096 10.093,14.872 2.482,7.291 2.132,15.645 -1.617,22.455 -1.857,4.022 -4.415,7.719 -7.436,10.955 -2.543,2.182 -5.569,4.369 -9.043,4.468 0.898,-2.704 2.288,-5.484 1.645,-8.415 -1.012,-4.026 -4.108,-7.041 -6.874,-9.966 -2.415,-2.621 -4.973,-5.118 -7.767,-7.338 1.612,4.84 3.177,9.699 4.737,14.557 -5.106,-4.496 -10.035,-9.185 -15.175,-13.644 1.225,3.428 1.687,7.224 0.549,10.743 -0.653,2.243 -1.896,4.256 -3.324,6.085 l -0.25,0.334 c 0.822,2.056 1.049,4.276 1.078,6.468 -3.04,-1.661 -5.891,-3.655 -9.035,-5.127 3.248,5.819 9.148,9.798 15.331,12.036 5.683,2.159 11.819,2.686 17.855,2.752 -10.074,4.125 -21.372,4.779 -31.984,2.564 6.092,4.797 13.922,6.82 21.523,7.685 9.332,0.95 18.763,-0.273 27.806,-2.577 2.146,-0.546 4.226,-1.355 6.411,-1.76 -2.355,1.487 -5.012,2.386 -7.578,3.415 C 63.105,-2.954 46.862,-0.865 30.997,-2.516 36.051,0.691 41.27,3.646 46.205,7.027 34.906,7.86 23.83,3.8 14.3,-1.947 10.012,-4.487 6.174,-7.662 2.269,-10.724 5.861,-5.701 9.847,-0.959 13.411,4.083 10.765,3.593 8.192,2.799 5.658,1.91 3.772,1.27 1.99,0.301 0,0"
             style="fill:#ec2227;fill-opacity:1;fill-rule:nonzero;stroke:none"
             id="path74" /></g><g
           id="g76"
           transform="translate(471.1465,438.5771)"><path
             d="m 0,0 c 3.2,-1.04 6.438,-1.98 9.644,-2.996 3.144,-2.582 4.813,-6.444 6.326,-10.118 1.521,-3.513 2.921,-7.078 4.425,-10.601 -3.783,2.318 -7.527,4.694 -11.29,7.046 -0.931,0.427 -1.073,1.504 -1.437,2.341 C 5.786,-9.238 3.546,-4.182 0,0"
             style="fill:#ec2227;fill-opacity:1;fill-rule:nonzero;stroke:none"
             id="path78" /></g><g
           id="g80"
           transform="translate(579.2471,524.1157)"><path
             d="M 0,0 C 9.53,5.748 20.606,9.807 31.905,8.975 26.97,5.593 21.751,2.639 16.697,-0.569 c 15.866,1.651 32.109,-0.438 47.014,-6.105 2.566,-1.03 5.224,-1.929 7.578,-3.415 -2.185,0.404 -4.265,1.214 -6.411,1.759 -9.043,2.305 -18.474,3.528 -27.806,2.577 -7.601,-0.865 -15.43,-2.888 -21.523,-7.685 10.612,2.215 21.91,1.562 31.984,-2.563 -6.036,-0.066 -12.172,-0.593 -17.855,-2.752 -6.183,-2.239 -12.083,-6.218 -15.33,-12.037 3.143,1.473 5.994,3.467 9.034,5.127 -0.028,-2.191 -0.256,-4.412 -1.078,-6.467 -2.18,-5.479 -5.901,-10.305 -10.67,-13.805 -6.845,0.871 -13.969,-0.07 -20.266,-2.935 0.818,4.962 2.808,9.67 5.29,14.026 1.347,2.418 3.196,4.492 4.794,6.745 -2.96,-1.383 -5.674,-3.222 -8.415,-4.976 -5.844,-3.951 -11.507,-8.312 -16.063,-13.725 2.268,13.462 8.31,26.791 18.937,35.737 -10.765,-5.023 -19.528,-13.579 -26.331,-23.155 -2.908,-4.003 -5.229,-8.373 -7.583,-12.705 0.756,7.451 2.35,14.802 3.163,22.253 -11.039,-7.488 -19.274,-18.64 -24.389,-30.837 -1.181,-2.845 -2.098,-5.795 -3.105,-8.706 -1.386,5.95 -3.088,11.829 -4.316,17.813 1.389,-1.991 2.566,-4.116 3.837,-6.185 0.511,-0.777 0.861,-1.717 1.679,-2.245 4.302,14.022 12.235,26.811 22.138,37.601 7.162,7.596 15.44,14.293 24.696,19.176 1.99,0.301 3.773,1.27 5.658,1.91 2.535,0.889 5.107,1.684 7.753,2.173 C -4.453,0.988 -8.438,-3.753 -12.031,-8.777 -8.126,-5.715 -4.288,-2.54 0,0"
             style="fill:#d91f26;fill-opacity:1;fill-rule:nonzero;stroke:none"
             id="path82" /></g><g
           id="g84"
           transform="translate(459.1768,442.2881)"><path
             d="m 0,0 c 2.529,-0.781 5.049,-1.58 7.593,-2.319 1.04,-0.216 1.588,-1.213 2.193,-1.985 2.822,-3.942 4.793,-8.414 6.419,-12.953 -3.686,2.258 -7.384,4.52 -10.962,6.942 C 3.726,-6.773 2.151,-3.222 0,0"
             style="fill:#d91f26;fill-opacity:1;fill-rule:nonzero;stroke:none"
             id="path86" /></g><g
           id="g88"
           transform="translate(548.8271,489.8975)"><path
             d="M 0,0 C 6.803,9.576 15.566,18.132 26.331,23.155 15.704,14.209 9.662,0.88 7.394,-12.582 c 4.556,5.414 10.219,9.774 16.063,13.725 2.741,1.754 5.455,3.593 8.415,4.977 -1.599,-2.254 -3.447,-4.328 -4.794,-6.745 -2.482,-4.356 -4.473,-9.064 -5.29,-14.026 6.297,2.864 13.421,3.805 20.266,2.934 -4.718,-3.504 -9.814,-6.542 -15.189,-8.931 -7.961,-4.102 -13.752,-11.158 -18.942,-18.231 -1.641,-2.084 -3.045,-4.361 -4.851,-6.308 1.243,6.044 2.639,12.06 3.872,18.108 -4.363,-8.527 -10.433,-16.025 -16.371,-23.494 1.31,6.284 2.77,12.54 4.202,18.796 -0.798,-0.494 -1.574,-1.049 -2.24,-1.717 -4.751,-4.478 -8.31,-10.037 -11.355,-15.762 -2.623,7.785 -2.303,16.261 -0.42,24.168 -4.781,-7.01 -9.144,-14.647 -10.557,-23.109 -2.519,3.748 -4.832,7.629 -7.408,11.34 -1.456,-5.593 -1.938,-11.397 -1.934,-17.163 -3.885,6.326 -4.297,14.097 -3.46,21.283 0.804,7.324 3.172,14.346 5.801,21.194 0.293,-0.136 0.482,-0.353 0.568,-0.639 1.228,-5.984 2.93,-11.863 4.316,-17.813 1.007,2.912 1.924,5.861 3.105,8.706 C -23.694,-9.092 -15.459,2.06 -4.42,9.548 -5.233,2.098 -6.827,-5.254 -7.583,-12.705 -5.229,-8.373 -2.908,-4.003 0,0"
             style="fill:#ec2227;fill-opacity:1;fill-rule:nonzero;stroke:none"
             id="path90" /></g><g
           id="g92"
           transform="translate(447.1836,443.958)"><path
             d="M 0,0 C 1.206,1.698 3.433,0.913 5.087,0.489 6.198,0.075 7.63,0.056 8.377,-0.983 10.292,-3.528 11.847,-6.34 12.968,-9.318 9.517,-7.239 6.146,-5.023 2.737,-2.869 1.584,-2.164 0.586,-1.223 0,0"
             style="fill:#ec2227;fill-opacity:1;fill-rule:nonzero;stroke:none"
             id="path94" /></g><g
           id="g96"
           transform="translate(551.3467,399.0493)"><path
             d="M 0,0 C 1.649,4.876 2.813,10.309 6.911,13.842 6.826,11.02 7.984,8.089 6.727,5.39 5.479,2.633 2.505,1.368 0,0"
             style="fill:#ec2227;fill-opacity:1;fill-rule:nonzero;stroke:none"
             id="path98" /></g><g
           id="g100"
           transform="translate(674.9717,494.7466)"><path
             d="m 0,0 c 9.143,1.693 18.521,3.25 27.825,2.075 l 0.194,-0.024 c -6.254,-1.896 -12.56,-3.65 -18.857,-5.419 0.16,-0.131 0.473,-0.39 0.633,-0.517 14.409,-6.66 27.48,-16.176 38.32,-27.727 11.468,-12.291 20.318,-27.144 24.922,-43.316 -4.59,1.28 -9.015,3.119 -13.652,4.225 0.402,-1.299 0.935,-2.559 1.219,-3.89 1.026,-13.58 1.811,-27.177 2.837,-40.757 0.085,-1.547 0.132,-3.095 0.161,-4.643 -1.972,15.805 -8.75,30.894 -18.81,43.241 -2.161,2.582 -4.378,5.141 -6.94,7.333 5.857,-10.631 8.769,-23.062 7.124,-35.15 -3.219,5.667 -8.552,9.68 -13.936,13.174 -2.832,1.765 -5.654,3.603 -8.746,4.882 3.035,-9.435 5.077,-19.283 4.944,-29.227 0.118,-9.162 -1.668,-18.32 -4.982,-26.857 -1.985,-4.661 -4.197,-9.332 -7.487,-13.24 2.448,8.296 0.978,17.105 -1.348,25.248 -1.825,5.719 -3.792,11.467 -6.751,16.716 -2.019,-8.941 -6.595,-17.257 -12.844,-23.963 -2.519,-2.622 -5.139,-5.199 -8.24,-7.131 5.413,7.883 8.945,17.26 8.826,26.894 -0.439,11.491 -4.713,22.464 -10.296,32.403 1.248,-7.451 1.277,-15.173 -0.614,-22.521 -0.903,1.134 -1.476,2.464 -2.17,3.722 -2.043,3.813 -4.435,7.425 -6.558,11.193 -2.008,3.48 -2.925,7.479 -3.365,11.434 -0.085,4.126 -1.258,8.246 -3.466,11.74 0.705,-3.104 0.454,-6.255 0.18,-9.397 0.18,-6.378 -1.446,-12.668 -3.824,-18.542 -0.851,2.587 -2.042,5.062 -3.617,7.291 -2.661,3.861 -6.225,7.018 -8.812,10.936 -2.968,4.539 -4.292,10.056 -7.955,14.162 -1.144,1.374 -2.737,2.238 -4.014,3.462 3.597,-0.226 7.11,-1.896 9.431,-4.657 3.37,-4.773 6.283,-9.867 9.629,-14.67 1.136,7.869 1.348,16.194 -1.573,23.721 2.113,-1.991 4.268,-3.938 6.348,-5.961 0.331,4.464 0.681,8.923 1.017,13.387 3.115,-0.894 5.989,-2.451 8.708,-4.182 7.469,-4.924 13.288,-12.051 17.373,-19.924 0.392,6.792 -0.218,13.626 -1.102,20.361 -1.409,9.695 -4.085,19.483 -9.734,27.63 10.765,-5.344 21.278,-11.699 29.551,-20.508 -1.002,13.048 -7.437,25.084 -15.798,34.952 12.252,-2.474 24.005,-7.21 34.67,-13.683 C 21.013,-15.221 11.544,-5.908 0,0"
             style="fill:#d91f26;fill-opacity:1;fill-rule:nonzero;stroke:none"
             id="path102" /></g><g
           id="g104"
           transform="translate(485.3857,434.1089)"><path
             d="m 0,0 c 4.793,-1.524 9.71,-2.766 14.399,-4.558 4.888,-7.431 7.115,-16.194 8.419,-24.882 -3.984,2.202 -7.823,4.671 -11.662,7.107 -1.333,2.526 -2.26,5.254 -3.461,7.846 C 5.379,-9.535 3.668,-4.187 0,0"
             style="fill:#d91f26;fill-opacity:1;fill-rule:nonzero;stroke:none"
             id="path106" /></g><g
           id="g108"
           transform="translate(607.0352,392.5479)"><path
             d="m 0,0 c -0.753,-2.922 -2.244,-6.105 -5.131,-7.434 0.527,6.708 -2.161,13.287 -6.237,18.519 -2.07,3.011 -5.067,5.187 -7.407,7.945 6.473,-0.249 12.85,-3.791 16.11,-9.442 0.472,1.719 0.748,3.488 1.256,5.202 C 0.493,10.181 1.112,4.892 0,0 m -17.63,32.326 c -1.594,1.635 -2.092,3.927 -2.692,6.05 -0.628,2.609 -1.265,5.242 -1.505,7.92 1.435,-2.076 2.299,-4.502 3.791,-6.546 0.286,-0.45 1.168,-0.975 1.523,-0.304 0.67,0.91 0.965,2.036 1.432,3.051 1.085,-3.479 0.018,-7.585 -2.549,-10.171 M -35.324,0.744 c -1.261,-1.267 -2.674,-2.541 -4.461,-2.976 0.771,1.372 1.635,2.687 2.305,4.116 -1.894,-0.533 -3.847,-1.075 -5.833,-0.786 3.13,2.867 7.014,5.522 8.109,9.882 1.052,3.193 -0.198,6.427 -1.354,9.391 3.094,-2.38 4.226,-6.579 3.939,-10.333 0.753,0.064 1.506,0.143 2.263,0.253 -0.461,-3.621 -2.494,-6.915 -4.968,-9.547 m -3.782,-11.278 c -4.133,-1.994 -8.875,-2.105 -13.373,-1.825 -6.168,0.501 -12.467,2.306 -17.297,6.29 -0.872,0.915 -2.331,1.74 -2.101,3.198 -1.09,1.13 -1.833,2.54 -2.387,3.996 2.041,-1.052 4.058,-2.443 6.474,-2.353 2.535,-0.095 4.345,2.069 5.31,4.164 2.086,4.525 3.181,9.454 5.449,13.901 1.435,2.758 3.402,5.345 6.155,6.911 3.306,2.177 7.185,4.107 11.272,3.294 -0.508,-1.125 -2.009,-1.189 -2.979,-1.811 1.232,-3.601 4.641,-5.962 5.697,-9.633 0.86,-3.62 -1.158,-7.177 -3.962,-9.359 -4.893,-3.818 -11.04,-5.444 -16.926,-7.093 0.535,-0.41 1.135,-0.599 1.799,-0.562 3.417,0.057 6.788,0.657 10.062,1.59 -0.771,-2.771 -3.541,-3.964 -5.887,-5.14 4.456,-0.349 9.055,0.256 13.234,1.865 0.568,0.188 1.154,0.271 1.754,0.244 0.989,0.734 1.871,1.602 2.813,2.401 l -0.189,0.198 c 0.535,0.676 1.108,1.32 1.731,1.916 0.383,-4.879 -2.198,-9.96 -6.649,-12.192 M -51.25,-41.161 c -4.581,1.158 -9.323,0.116 -13.659,-1.46 0.296,0.441 0.582,0.882 0.919,1.291 -0.231,-0.01 -0.688,-0.024 -0.923,-0.032 1.449,3.823 3.776,7.622 7.512,9.584 1.917,1.051 4.52,1.088 6.099,-0.588 2.826,-2.789 4.835,-6.363 6.299,-10.016 l -0.591,0.064 c 0.429,-0.537 0.739,-1.159 1.067,-1.768 -2.17,1.125 -4.244,2.549 -6.723,2.925 m -22.201,51.182 c 0.775,-0.929 1.283,-2.758 2.835,-2.381 1.689,0.781 2.52,2.605 3.522,4.067 2.499,3.871 3.556,8.596 6.793,11.99 3.339,3.625 8.459,5.344 13.34,4.953 -2.437,-1.157 -5.189,-1.655 -7.351,-3.353 -3.837,-2.731 -5.116,-7.48 -6.705,-11.648 -1.343,-3.376 -2.396,-7.02 -4.797,-9.84 -1.436,-1.82 -4.423,-1.843 -5.915,-0.079 -1.422,1.728 -1.903,4.103 -1.722,6.291 m 1.718,-24.342 c 0.036,-2.269 -0.481,-4.492 -0.777,-6.731 -1.523,-10.474 -2.89,-20.971 -3.809,-31.52 -0.554,-5.325 0.032,-10.765 -1.284,-16.006 -0.402,-1.481 -0.72,-3.083 -1.814,-4.241 0.175,1.488 0.392,2.972 0.512,4.465 -1.911,3.216 -3.653,6.639 -6.354,9.28 -2.765,2.881 -8.095,2.036 -10.066,-1.355 -2.35,-3.827 -1.921,-8.646 -0.863,-12.817 0.771,-3.428 2.36,-6.608 3.125,-10.029 l -0.604,-0.64 c 0.767,-2.77 0.328,-7.079 -3.043,-7.801 -0.489,-1.911 -2.997,-2.173 -4.65,-2.04 -1.136,0.239 -2.664,0.272 -3.237,1.435 0.268,-0.024 0.818,-0.066 1.09,-0.088 -4.346,2.673 -7.988,6.601 -10.242,11.154 1.445,-0.749 2.743,-1.764 4.248,-2.411 -1.953,3.671 -3.241,7.777 -3.062,11.963 1.672,-3.065 3.414,-6.197 6.17,-8.457 1.625,-1.292 3.555,-2.937 5.79,-2.293 0.079,0.803 0.125,1.617 -0.032,2.407 -0.591,3.216 -0.919,6.514 -0.517,9.772 0.092,2.164 -0.813,4.705 0.392,6.616 0.374,4.843 3.879,9.538 8.811,10.47 1.976,0.57 4.016,0.152 5.966,-0.294 1.98,9.983 4.779,19.816 8.418,29.33 1.518,3.703 2.918,7.562 5.554,10.654 0.31,0.404 0.753,0.662 1.187,0.924 -0.3,-0.58 -0.601,-1.163 -0.909,-1.747 m -13.59,-62.642 c -0.577,-0.786 -1.095,-1.71 -1.986,-2.179 0.296,-1.34 -0.997,-2.181 -1.912,-2.903 -1.14,-1.029 -2.636,0.17 -3.185,1.25 -1.183,2.33 -1.838,4.981 -1.745,7.599 0.853,-1.64 1.278,-3.588 2.733,-4.852 1.163,3.763 -0.729,7.678 -0.069,11.495 0.401,-0.298 0.706,-0.667 0.914,-1.111 -0.384,1.773 -0.42,3.9 0.914,5.301 0.734,0.818 1.949,0.8 2.914,0.478 2.175,-0.837 3.712,-2.969 3.994,-5.256 0.406,-3.446 -0.702,-6.947 -2.572,-9.822 M 12.818,55.223 c -1.497,0.561 -3.089,0.809 -4.585,1.369 0.544,0.583 1.196,1.061 1.893,1.456 3.851,2.256 7.536,4.787 11.429,6.979 -0.149,-2.83 -1.626,-5.311 -2.402,-7.976 2.808,1.237 5.287,3.129 8.187,4.186 -0.665,-1.457 -1.921,-2.49 -3.085,-3.537 -3.509,-3 -7.642,-5.156 -11.843,-7.044 -1.976,-0.813 -3.921,-1.819 -6.058,-2.177 1.763,2.586 4.552,4.272 6.464,6.744 M 37.9,-70.921 c 0.042,0.813 0.102,1.611 0.19,2.406 -0.236,-0.459 -0.471,-0.914 -0.716,-1.369 -0.67,-0.299 -0.858,0.515 -1.154,0.92 -1.473,2.692 -1.765,5.853 -1.649,8.861 0.324,6.038 2.069,12.005 5.223,17.179 1.56,2.728 3.661,5.085 5.499,7.617 0.176,3.505 0.489,7.025 0.051,10.53 -0.901,7.805 -3.099,15.431 -5.993,22.728 -0.818,-5.946 -3.769,-11.51 -7.952,-15.792 -0.129,4.54 -1.616,8.882 -3.362,13.027 -1.482,3.528 -3.348,6.909 -5.675,9.955 -1.653,2.246 -4.119,3.758 -5.656,6.106 -2.461,3.62 -4.036,7.787 -5.112,12.009 C 10.851,21.207 8.889,20.173 6.853,19.747 6.677,19.695 6.312,19.595 6.127,19.544 c 0.028,1.824 0.374,3.749 -0.401,5.477 -0.776,1.842 -2.305,3.206 -3.58,4.69 -1.389,1.539 -2.479,3.322 -3.283,5.219 -0.281,0.528 -0.591,1.047 -0.886,1.562 -0.48,-3.427 0.079,-6.867 0.605,-10.25 -2.628,1.838 -4.992,4.034 -7.697,5.761 -0.195,0.092 -0.577,0.276 -0.767,0.373 -0.023,2.701 1.08,5.402 3.153,7.186 3.972,3.482 9.176,4.888 13.914,6.991 7.91,3.189 15.658,7.388 21.424,13.779 4.646,5.265 7.924,12.138 7.495,19.273 -0.009,7.682 -4.364,14.624 -9.798,19.787 -0.402,-4.874 -3.815,-8.774 -6.926,-12.285 0.493,-1.374 -0.443,-2.66 -1.03,-3.84 -3.118,-5.325 -7.518,-9.745 -11.91,-14.036 2.55,1.061 4.632,2.908 6.715,4.654 5.878,5.316 11.077,11.329 15.806,17.665 0.056,0.455 0.12,0.909 0.198,1.365 0.18,-0.639 0.356,-1.282 0.54,-1.92 2.356,-4.807 3.155,-10.343 2.258,-15.617 -1.251,-6.538 -5.48,-12.294 -10.901,-16.085 2.968,4.209 4.76,9.175 5.153,14.307 C 24.038,69.438 20.243,66.341 15.958,64.494 9.877,61.926 4.266,58.154 -0.185,53.285 c 2.369,0.441 4.687,1.12 7.05,1.617 C 6.404,53.583 5.397,52.591 4.451,51.612 4.372,50.119 3.07,49.168 2.184,48.111 c -3.14,-3.445 -8.053,-4.815 -12.606,-4.429 1.034,-2.981 1.021,-6.464 -0.623,-9.238 -1.123,-1.811 -2.753,-3.694 -5.011,-3.952 1.322,2.844 3.773,5.362 3.653,8.688 -0.185,3.818 -2.244,7.337 -2.119,11.201 0.083,1.685 1.293,2.977 2.313,4.213 1.449,3.478 4.248,6.317 7.415,8.311 -1.274,-2.817 -3.707,-5.261 -3.739,-8.513 1.652,1.823 3.471,3.505 5.392,5.049 -0.008,2.017 0.85,3.914 0.818,5.931 -2.789,-0.919 -5.333,-2.449 -7.587,-4.309 -4.913,-3.924 -7.508,-10.108 -8.02,-16.25 -2.591,2.871 -2.757,6.868 -3.228,10.493 -3.653,-6.657 -2.896,-14.835 -0.161,-21.672 0.849,-2.398 3.08,-3.905 4.183,-6.151 -1.159,-0.019 -2.308,0.28 -3.232,0.987 -1.857,1.103 -2.522,3.46 -4.617,4.227 -0.712,0.087 -1.437,0.092 -2.112,0.331 -4.884,1.967 -9.007,5.811 -11.099,10.645 -2.383,5.072 -2.397,10.806 -1.931,16.264 -3.477,-5.61 -4.275,-12.377 -4.945,-18.813 -1.104,0.169 -2.212,0.325 -3.324,0.449 -0.13,-0.137 -0.403,-0.418 -0.532,-0.56 -4.136,-0.469 -8.403,-1.691 -11.511,-4.585 2.05,0.529 3.782,1.842 5.823,2.388 3.393,1.007 7.041,1.503 10.537,0.717 -1.325,-0.702 -2.66,-1.391 -3.943,-2.177 3.458,-1.13 7.203,-2.233 9.728,-4.985 -5.355,0.147 -10.915,0.092 -15.962,-1.916 -4.281,-1.682 -7.509,-5.228 -9.665,-9.184 -0.023,2.045 -0.027,4.09 -0.142,6.134 -2.121,-2.435 -3.797,-5.206 -5.981,-7.577 -0.286,-0.303 -0.457,-0.73 -0.882,-0.882 0.07,1.342 0.384,2.643 0.499,3.97 -1.321,1.374 -1.709,3.284 -2.641,4.889 -1.002,1.75 -2.295,3.302 -3.385,4.999 -0.379,0.004 -1.136,0.013 -1.515,0.013 1.696,-2.715 2.221,-6.01 1.741,-9.152 C -77.012,17.826 -79.251,12 -83.365,7.677 -86.371,4.53 -90.883,2.545 -95.27,3.51 c -0.839,0.009 -1.943,0.749 -2.581,-0.11 1.205,-1.589 2.771,-2.858 4.438,-3.942 2.955,0.938 6.104,1.313 8.861,2.811 2.29,1.053 4.054,2.882 5.855,4.586 -0.074,-1.761 -0.286,-3.547 -1.053,-5.16 -0.826,-1.979 -2.364,-3.524 -3.657,-5.206 4.936,-0.555 10.32,-1.75 13.803,-5.558 -4.378,-0.294 -8.802,-0.468 -13.078,-1.563 1.93,-0.481 4.091,-0.316 5.786,-1.483 0.928,0.146 1.875,0.175 2.812,0.161 -6.487,-12.102 -9.697,-25.563 -13.732,-38.574 -1.058,0.037 -2.121,0.1 -3.177,0.203 2.414,7.024 4.972,14.025 6.704,21.253 0.438,2.007 0.933,4.056 0.725,6.114 -0.097,1.314 -1.242,2.329 -2.48,2.592 -2.82,0.602 -5.628,-0.36 -8.422,-0.681 -1.565,-1.428 -2.84,-3.134 -3.901,-4.952 2.036,-0.78 2.871,-2.895 2.821,-4.935 0.078,-5.898 -1.631,-11.761 -4.373,-16.958 -1.007,-1.869 -2.23,-3.697 -3.98,-4.947 -0.873,-0.662 -2.028,-0.34 -3.035,-0.363 -0.017,-3.533 -0.017,-7.209 1.405,-10.517 1.181,-2.862 2.253,-5.949 1.809,-9.086 -0.207,-1.132 -0.665,-2.522 -1.911,-2.868 -1.335,-0.422 -2.364,0.768 -3.024,1.741 -2.615,4.017 -3.043,8.872 -3.889,13.449 -1.205,-4.026 -1.759,-8.21 -2.696,-12.3 -0.161,-0.238 -0.481,-0.716 -0.642,-0.951 l -0.074,-0.1 c -0.005,-0.906 0,-1.797 -0.005,-2.711 -1.847,2.316 -2.654,5.224 -3.167,8.076 -1.164,-0.725 -2.147,-1.884 -2.222,-3.303 -0.133,-2.375 0.943,-4.613 2.056,-6.652 2.549,-4.581 6.002,-8.555 9.179,-12.699 -0.808,-2.738 1.69,-4.985 4.105,-5.688 4.844,-1.548 9.96,-0.018 14.679,1.273 5.283,2.169 9.697,6.299 12.297,11.351 2.221,4.471 3.874,9.263 4.4,14.24 0.55,3.959 0.587,8.058 2.078,11.824 1.454,3.58 3.26,7.154 6.179,9.782 2.497,2.172 5.647,3.785 9.018,3.846 3.486,-0.285 6.418,-2.568 8.597,-5.142 2.124,-2.205 4.226,-4.613 5.113,-7.603 0.692,-2.141 0.428,-4.696 -1.161,-6.386 -2.173,-2.536 -5.457,-3.606 -8.509,-4.682 -2.189,-1.764 -4.904,-2.636 -7.296,-4.075 -3.274,-1.833 -6.579,-4.167 -8.219,-7.649 0.679,-0.138 1.357,-0.289 2.046,-0.442 -1.229,-4.524 -4.816,-7.948 -8.382,-10.792 -2.363,-1.686 -4.607,-3.729 -7.484,-4.493 -1.353,-0.895 -2.813,-1.658 -4.073,-2.683 3.371,-0.812 6.779,0.625 10.02,1.466 2.706,1.263 4.53,3.804 6.382,6.046 2.493,2.904 5.218,5.793 6.473,9.478 0.324,0.883 0.661,1.75 1.026,2.605 0.803,-4.54 0.577,-9.184 -0.642,-13.627 2.092,2.21 2.858,5.329 3.892,8.127 1.653,6.097 7.102,9.956 11.941,13.512 0.005,0.18 0.009,0.534 0.009,0.708 1.981,2.665 4.872,4.525 6.807,7.24 1.653,2.329 3.098,4.82 4.132,7.485 -2.729,4.41 -3.621,9.679 -3.633,14.789 1.403,-1.557 2.41,-3.41 3.716,-5.04 -0.24,3.661 -0.641,7.341 -0.111,10.999 0.827,7.167 3.801,13.846 7.191,20.145 -3.547,-1.116 -7.384,-1.24 -10.982,-0.275 1.65,1.107 3.611,1.607 5.246,2.747 2.397,1.539 4.276,3.822 5.365,6.441 1.613,3.634 1.317,7.677 0.948,11.522 2.871,-3.197 3.92,-7.447 4.839,-11.513 1.357,2.895 2.064,6.024 2.95,9.083 1.953,-3.097 2.272,-6.868 2.701,-10.42 0.028,-0.46 0.231,-0.836 0.61,-1.13 0.845,6.247 -0.291,12.555 -1.506,18.681 0.495,-0.589 0.999,-1.172 1.473,-1.783 1.437,0.376 2.633,-0.702 3.723,-1.47 3.135,-2.366 4.889,-6.212 5.028,-10.085 0.3,-5.94 -1.995,-11.55 -4.346,-16.879 8.073,3.974 13.821,11.531 16.896,19.811 1.132,-2.018 1.21,-4.392 1.22,-6.649 0.037,-1.874 -0.707,-3.749 -0.19,-5.609 1.648,3.8 3.047,7.957 2.503,12.151 C 6.349,3.101 4.47,5.605 3.38,8.417 2.17,11.127 1.87,14.385 3.195,17.114 4.128,15.965 4.234,14.43 4.737,13.085 6.169,8.347 10.402,4.838 10.979,-0.221 c 7.034,-4.287 12.339,-10.874 16.218,-18.022 2.651,-5.242 4.797,-10.812 5.809,-16.6 -1.237,0.602 -0.984,2.26 -1.611,3.308 -0.25,-2.183 0.604,-4.281 0.702,-6.45 0.424,-6.304 0.354,-12.676 -0.619,-18.934 -0.591,2.023 -0.628,4.136 -1.053,6.185 -2.596,13.608 -8.76,26.54 -17.667,37.18 -1.579,-3.031 -3.237,-6.026 -4.687,-9.119 0.923,-4.213 2.466,-8.319 3.569,-12.511 -1.732,1.402 -3.643,2.62 -5.789,3.281 -6.106,2.036 -12.644,2.325 -19.03,2.087 0.393,-0.617 0.785,-1.242 1.173,-1.871 l 0.088,-0.004 c 0.738,-0.038 1.473,-0.087 2.197,-0.272 7.601,-2.232 14.606,-6.303 20.438,-11.632 -0.18,1.897 -0.601,3.767 -0.946,5.637 2.709,-1.59 4.986,-3.786 7.211,-5.968 2.139,-2.017 3.593,-4.594 5.468,-6.837 -2.304,8.123 -5.144,16.1 -7.333,24.249 1.765,-1.631 2.836,-3.813 4.119,-5.801 6.64,-11.055 10.861,-23.809 10.708,-36.765 -1.726,2.881 -2.711,6.121 -4.427,9.005 -0.176,-7.875 -1.405,-15.785 -4.332,-23.137 -0.259,-0.726 -0.688,-1.382 -1.219,-1.942 -0.66,9.564 -2.979,19.282 -8.408,27.326 -1.889,2.545 -3.843,5.21 -6.641,6.831 0.601,-3.041 1.377,-6.046 1.88,-9.109 0.032,0.233 0.105,0.716 0.139,0.955 5.305,-5.307 8.325,-12.542 9.215,-19.916 0.911,-6.253 0.195,-12.576 -0.797,-18.778 1.906,2.036 3.208,4.512 4.676,6.856 2.18,3.527 4.101,7.198 5.99,10.887 0.318,0.676 0.775,1.264 1.301,1.789 -0.036,-4.585 -1.33,-9.052 -2.802,-13.361 -2.793,-8.275 -6.945,-15.998 -11.294,-23.551 l 0.65,-0.156 c 1.312,2.068 3.251,3.649 4.558,5.725 1.856,2.968 3.5,6.064 5.019,9.217 3.735,7.699 8.122,15.339 9.41,23.917 0.12,0.606 0.319,1.19 0.596,1.746 0.102,0.583 0.203,1.163 0.314,1.737 4.396,-5.606 4.308,-13.195 3.888,-19.949 3.117,3.321 5.546,7.214 7.642,11.228 3.228,6.34 5.754,13.075 7.282,20.017 -5.592,-1.774 -10.172,-5.596 -14.684,-9.178"
             style="fill:#dcdddf;fill-opacity:1;fill-rule:nonzero;stroke:none"
             id="path110" /></g><g
           id="g112"
           transform="translate(509.6934,390.7891)"><path
             d="m 0,0 c 0.228,-0.117 0.676,-0.357 0.903,-0.475 -0.87,-3.429 -2.047,-6.773 -2.865,-10.211 0.497,-0.612 0.998,-1.228 1.494,-1.844 -0.241,-0.165 -0.723,-0.499 -0.965,-0.663 -0.888,1.204 -1.724,2.441 -2.466,3.734 1.233,3.18 2.684,6.27 3.899,9.459"
             style="fill:#dcdddf;fill-opacity:1;fill-rule:nonzero;stroke:none"
             id="path114" /></g><g
           id="g116"
           transform="translate(603.3711,333.9463)"><path
             d="M 0,0 C 0.936,-1.247 1.125,-2.854 1.772,-4.251 L 1.734,-4.365 C 1.526,-4.878 1.395,-5.413 1.343,-5.968 2.916,-24.66 -0.572,-43.54 -7.139,-61.048 c -0.671,-1.754 -1.21,-3.588 -2.283,-5.154 0.075,0.945 0.19,1.886 0.388,2.808 2.458,10.559 5.011,21.09 7.493,31.645 1.876,8.067 2.453,16.406 1.853,24.656 C 0.104,-4.731 -0.378,-2.366 0,0"
             style="fill:#dcdddf;fill-opacity:1;fill-rule:nonzero;stroke:none"
             id="path118" /></g><g
           id="g120"
           transform="translate(614.499,330.2783)"><path
             d="m 0,0 c 1.527,-2.987 2.175,-6.308 2.799,-9.573 2.354,-13.507 -0.88,-27.76 -8.533,-39.123 -0.335,3.006 0.089,6.011 0.109,9.016 0.051,3.292 0.08,6.58 0.108,9.868 0.057,2.273 -0.294,4.671 0.818,6.764 0.005,-0.277 0.014,-0.832 0.014,-1.11 0.808,-0.071 0.761,0.733 0.917,1.298 l 0.062,0.066 c 0.534,0.565 1.097,1.139 1.361,1.882 1.253,3.17 2,6.532 2.302,9.925 C 0.303,-7.328 -0.185,-3.664 0,0"
             style="fill:#dcdddf;fill-opacity:1;fill-rule:nonzero;stroke:none"
             id="path122" /></g><g
           id="g124"
           transform="translate(620.1904,466.4312)"><path
             d="M 0,0 C 5.877,5.315 11.076,11.331 15.805,17.667 15.294,11.449 10.783,6.623 6.51,2.479 -0.435,-4.002 -8.854,-8.588 -16.295,-14.444 c -0.009,2.018 0.852,3.918 0.818,5.931 -2.79,-0.917 -5.337,-2.446 -7.587,-4.308 -4.913,-3.923 -7.507,-10.109 -8.022,-16.252 -2.592,2.875 -2.757,6.872 -3.229,10.494 3.474,6.759 10.622,10.296 17.103,13.621 9.029,4.295 16.731,10.88 23.439,18.18 C 6.718,11.848 5.782,10.564 5.195,9.384 2.076,4.06 -2.32,-0.362 -6.713,-4.651 -4.164,-3.593 -2.084,-1.745 0,0"
             style="fill:#f3f3f5;fill-opacity:1;fill-rule:nonzero;stroke:none"
             id="path126" /></g><g
           id="g128"
           transform="translate(617.1611,450.5942)"><path
             d="M 0,0 C 3.853,2.258 7.535,4.789 11.43,6.981 11.279,4.149 9.804,1.67 9.028,-0.997 11.837,0.24 14.313,2.136 17.212,3.189 16.55,1.736 15.293,0.701 14.129,-0.348 10.622,-3.349 6.485,-5.503 2.288,-7.389 c -1.981,-0.814 -3.924,-1.82 -6.061,-2.178 1.763,2.587 4.552,4.271 6.466,6.745 -1.498,0.56 -3.09,0.809 -4.585,1.369 C -1.348,-0.87 -0.695,-0.395 0,0"
             style="fill:#f3f3f5;fill-opacity:1;fill-rule:nonzero;stroke:none"
             id="path130" /></g><g
           id="g132"
           transform="translate(552.4199,431.3657)"><path
             d="m 0,0 c 3.394,1.007 7.039,1.501 10.537,0.715 -1.329,-0.7 -2.662,-1.391 -3.942,-2.177 3.455,-1.129 7.199,-2.234 9.728,-4.986 -5.356,0.146 -10.916,0.094 -15.964,-1.914 -4.278,-1.684 -7.507,-5.231 -9.663,-9.186 -0.023,2.046 -0.028,4.092 -0.146,6.133 -2.118,-2.432 -3.796,-5.202 -5.981,-7.572 0.667,2.559 1.914,4.92 3.012,7.314 1.706,3.377 3.55,6.914 6.594,9.284 C -3.772,-1.861 -2.043,-0.55 0,0"
             style="fill:#f3f3f5;fill-opacity:1;fill-rule:nonzero;stroke:none"
             id="path134" /></g><g
           id="g136"
           transform="translate(570.4775,412.9194)"><path
             d="m 0,0 c 3.092,-2.379 4.227,-6.581 3.938,-10.333 0.752,0.064 1.508,0.14 2.264,0.253 -0.463,-3.621 -2.495,-6.914 -4.968,-9.548 -1.261,-1.265 -2.675,-2.54 -4.463,-2.977 0.771,1.373 1.636,2.69 2.308,4.115 -1.896,-0.532 -3.849,-1.072 -5.835,-0.786 3.131,2.87 7.016,5.523 8.109,9.883 C 2.406,-6.2 1.154,-2.964 0,0"
             style="fill:#f3f3f5;fill-opacity:1;fill-rule:nonzero;stroke:none"
             id="path138" /></g><g
           id="g140"
           transform="translate(588.2578,411.5796)"><path
             d="m 0,0 c 6.477,-0.251 12.854,-3.792 16.11,-9.445 0.474,1.72 0.752,3.49 1.258,5.202 1.905,-4.61 2.52,-9.897 1.408,-14.789 -0.751,-2.921 -2.245,-6.104 -5.129,-7.435 0.525,6.712 -2.16,13.287 -6.24,18.522 C 5.342,-4.935 2.345,-2.758 0,0"
             style="fill:#f3f3f5;fill-opacity:1;fill-rule:nonzero;stroke:none"
             id="path142" /></g><g
           id="g144"
           transform="translate(587.6807,403.1729)"><path
             d="m 0,0 c 0.497,-0.587 0.997,-1.171 1.475,-1.782 1.427,-2.423 2.397,-5.076 3.418,-7.691 -0.302,-0.048 -0.898,-0.14 -1.196,-0.183 0.137,-0.273 0.416,-0.819 0.553,-1.09 l 0.142,0.183 c 1.489,-4.521 -0.004,-9.445 -2.402,-13.382 -2.306,-4.003 -6.003,-6.89 -9.113,-10.226 -4.544,-4.769 -7.102,-11.236 -7.494,-17.756 -0.35,-5.319 1.74,-10.343 3.461,-15.267 -5.149,-5.386 -11.095,-9.91 -17.123,-14.266 0.006,0.179 0.009,0.531 0.009,0.711 1.981,2.662 4.87,4.523 6.803,7.238 1.655,2.328 3.102,4.822 4.136,7.484 -2.731,4.411 -3.621,9.678 -3.635,14.788 1.404,-1.557 2.411,-3.407 3.716,-5.038 -0.241,3.659 -0.643,7.342 -0.108,10.997 0.827,7.168 3.799,13.847 7.19,20.145 -3.551,-1.115 -7.385,-1.237 -10.982,-0.273 1.645,1.105 3.612,1.608 5.243,2.747 2.396,1.538 4.278,3.819 5.366,6.438 1.611,3.636 1.318,7.677 0.949,11.524 2.87,-3.197 3.92,-7.445 4.836,-11.514 1.358,2.898 2.067,6.026 2.95,9.083 1.957,-3.096 2.275,-6.867 2.704,-10.418 0.029,-0.462 0.233,-0.838 0.61,-1.129 C 2.354,-12.432 1.215,-6.124 0,0"
             style="fill:#f3f3f5;fill-opacity:1;fill-rule:nonzero;stroke:none"
             id="path146" /></g><g
           id="g148"
           transform="translate(501.752,378.5508)"><path
             d="M 0,0 C 1.38,4.812 3.578,9.326 5.748,13.823 6.467,13.277 7.186,12.732 7.941,12.238 6.727,9.049 5.275,5.959 4.042,2.779 4.784,1.486 5.62,0.249 6.509,-0.955 5.507,-1.755 4.562,-2.615 3.616,-3.48 2.203,-2.554 0.954,-1.393 0,0"
             style="fill:#f3f3f5;fill-opacity:1;fill-rule:nonzero;stroke:none"
             id="path150" /></g><g
           id="g152"
           transform="translate(522.5801,381.4531)"><path
             d="M 0,0 C 0.587,0.184 1.178,0.333 1.773,0.465 3.702,-0.02 5.862,0.146 7.56,-1.021 1.035,-2.319 -5.389,-5.062 -10.013,-9.953 c -1.564,-1.426 -2.836,-3.133 -3.899,-4.953 2.037,-0.781 2.869,-2.893 2.822,-4.935 0.075,-5.897 -1.632,-11.759 -4.373,-16.956 -1.007,-1.867 -2.231,-3.696 -3.98,-4.948 -0.875,-0.663 -2.029,-0.338 -3.036,-0.361 -0.018,-3.534 -0.018,-7.211 1.405,-10.519 1.181,-2.859 2.255,-5.949 1.81,-9.086 -0.208,-1.13 -0.667,-2.52 -1.914,-2.865 -1.334,-0.423 -2.364,0.766 -3.021,1.74 -2.614,4.013 -3.044,8.871 -3.891,13.448 -1.205,-4.026 -1.759,-8.213 -2.694,-12.3 -0.161,-0.239 -0.483,-0.714 -0.643,-0.95 0.104,4.728 0.43,9.454 0.907,14.158 1.541,8.321 4.387,16.349 7.81,24.078 2.307,4.91 4.713,9.815 7.886,14.246 1.55,2.212 3.801,3.797 5.979,5.339 C -6.027,-2.992 -3.157,-1.181 0,0"
             style="fill:#f3f3f5;fill-opacity:1;fill-rule:nonzero;stroke:none"
             id="path154" /></g><g
           id="g156"
           transform="translate(622.1533,366.0342)"><path
             d="m 0,0 c 1.763,-1.632 2.836,-3.814 4.117,-5.804 6.642,-11.053 10.863,-23.804 10.707,-36.762 -1.724,2.882 -2.708,6.118 -4.425,9.005 -0.174,-7.873 -1.403,-15.789 -4.335,-23.135 -0.254,-0.73 -0.685,-1.383 -1.214,-1.944 -0.663,9.563 -2.979,19.282 -8.411,27.324 -1.89,2.545 -3.843,5.212 -6.641,6.834 0.6,-3.043 1.376,-6.048 1.881,-9.11 0.166,-0.735 0.411,-1.449 0.667,-2.164 -0.185,-3.664 0.302,-7.328 -0.043,-10.987 -0.302,-3.393 -1.049,-6.755 -2.302,-9.925 -0.265,-0.743 -0.827,-1.317 -1.361,-1.882 0.789,3.866 1.484,7.826 0.945,11.773 -1.499,9.7 -4.59,19.134 -9.01,27.896 -2.331,4.686 -5.333,8.989 -7.611,13.702 0.737,-0.037 1.474,-0.084 2.198,-0.267 7.602,-2.235 14.603,-6.309 20.437,-11.638 -0.18,1.9 -0.601,3.768 -0.947,5.641 2.709,-1.59 4.989,-3.787 7.215,-5.969 2.137,-2.019 3.588,-4.596 5.465,-6.835 C 5.029,-16.124 2.188,-8.15 0,0"
             style="fill:#f3f3f5;fill-opacity:1;fill-rule:nonzero;stroke:none"
             id="path158" /></g><g
           id="g160"
           transform="translate(543.0449,351.2178)"><path
             d="m 0,0 c 2.643,2.264 5.796,4.295 9.445,4.063 3.754,0.265 6.628,-2.492 8.95,-5.051 0.43,-0.535 0.742,-1.157 1.067,-1.768 -2.169,1.124 -4.244,2.549 -6.721,2.925 C 8.159,1.326 3.418,0.283 -0.917,-1.293 -0.624,-0.851 -0.335,-0.409 0,0"
             style="fill:#f3f3f5;fill-opacity:1;fill-rule:nonzero;stroke:none"
             id="path162" /></g><g
           id="g164"
           transform="translate(602.2412,337.0977)"><path
             d="M 0,0 C 0.373,-0.95 0.747,-1.899 1.158,-2.841 L 1.13,-3.151 c -0.378,-2.367 0.103,-4.732 0.311,-7.093 0.601,-8.25 0.024,-16.589 -1.852,-24.656 -2.483,-10.555 -5.035,-21.086 -7.493,-31.645 -0.199,-0.923 -0.313,-1.863 -0.388,-2.809 -0.274,-0.226 -0.549,-0.452 -0.827,-0.667 -1.357,-0.321 -2.737,-0.523 -4.099,-0.795 1.829,10.705 4.41,21.264 7.063,31.791 C -3.082,-26.222 0.582,-13.288 0,0"
             style="fill:#f3f3f5;fill-opacity:1;fill-rule:nonzero;stroke:none"
             id="path166" /></g><g
           id="g168"
           transform="translate(636.7373,483.543)"><path
             d="m 0,0 c 2.354,-4.807 3.152,-10.343 2.254,-15.616 -1.252,-6.538 -5.479,-12.295 -10.901,-16.086 2.969,4.21 4.76,9.177 5.153,14.308 -2.17,-4.162 -5.966,-7.262 -10.249,-9.106 -6.084,-2.568 -11.691,-6.34 -16.144,-11.213 2.369,0.442 4.685,1.124 7.049,1.618 -0.459,-1.317 -1.466,-2.309 -2.412,-3.288 -4.004,-2.864 -8.981,-4.304 -13.898,-4.134 0.794,2.144 1.928,4.181 3.555,5.808 8.93,9.022 21.051,14.252 29.447,23.853 C -2.71,-10.032 -0.171,-5.211 0,0"
             style="fill:#959599;fill-opacity:1;fill-rule:nonzero;stroke:none"
             id="path170" /></g><g
           id="g172"
           transform="translate(597.9209,424.5508)"><path
             d="M 0,0 C 2.33,2 4.377,4.356 7.109,5.848 7.686,4.977 7.767,3.924 7.979,2.927 7.695,3.457 7.389,3.974 7.09,4.487 6.613,1.063 7.171,-2.38 7.695,-5.762 5.067,-3.922 2.703,-1.726 0,0"
             style="fill:#959599;fill-opacity:1;fill-rule:nonzero;stroke:none"
             id="path174" /></g><g
           id="g176"
           transform="translate(610.127,429.3857)"><path
             d="m 0,0 c 3.304,-0.775 6.145,-2.981 7.865,-5.87 1.948,-3.104 3.059,-6.623 4.771,-9.844 3.295,-5.917 9.204,-9.925 12.239,-16.02 1.995,-3.721 3.125,-7.907 2.992,-12.141 1.446,0.754 2.666,1.938 3.319,3.439 1.753,4.04 2.907,8.297 4.066,12.535 3.432,-8.094 9.123,-15.093 11.917,-23.481 0.837,-4.181 1.045,-8.616 -0.19,-12.745 -0.902,-3.021 -2.684,-5.692 -4.779,-8.02 0.175,3.509 0.492,7.028 0.052,10.531 -0.902,7.807 -3.101,15.431 -5.994,22.727 -0.818,-5.944 -3.768,-11.509 -7.951,-15.79 -0.128,4.54 -1.617,8.88 -3.362,13.025 -1.483,3.528 -3.346,6.91 -5.673,9.957 -1.654,2.248 -4.122,3.759 -5.658,6.106 -2.463,3.621 -4.037,7.789 -5.11,12.008 -0.747,-2.047 -2.709,-3.081 -4.742,-3.51 0.402,2.437 2.156,4.606 1.717,7.169 C 4.656,-6.11 0.689,-3.852 0,0"
             style="fill:#959599;fill-opacity:1;fill-rule:nonzero;stroke:none"
             id="path178" /></g><g
           id="g180"
           transform="translate(616.1914,381.0391)"><path
             d="M 0,0 C 0.719,2.083 1.125,4.252 1.806,6.345 4.618,4.129 7.29,1.73 9.611,-0.993 c 5.162,-5.62 9.984,-11.844 12.627,-19.035 -0.252,-2.183 0.605,-4.281 0.703,-6.449 0.422,-6.302 0.356,-12.676 -0.619,-18.931 -0.591,2.018 -0.628,4.134 -1.053,6.179 -2.596,13.613 -8.76,26.542 -17.666,37.182 -1.58,-3.029 -3.239,-6.024 -4.69,-9.115 0.927,-4.214 2.468,-8.32 3.569,-12.512 -1.731,1.402 -3.64,2.62 -5.787,3.278 -6.107,2.038 -12.645,2.329 -19.031,2.089 5.753,3.838 11.922,6.99 17.931,10.41 C -1.588,-6.271 -0.884,-2.859 0,0"
             style="fill:#959599;fill-opacity:1;fill-rule:nonzero;stroke:none"
             id="path182" /></g><g
           id="g184"
           transform="translate(651.3018,332.9023)"><path
             d="m 0,0 c 4.52,4.205 9.327,8.255 14.967,10.903 0.765,-8.386 -1.504,-16.708 -4.666,-24.412 -1.503,-4.008 -4.079,-7.478 -6.41,-11.034 -6.538,-9.317 -14.358,-17.897 -23.713,-24.478 4.619,8.651 7.961,18.082 8.788,27.888 0.062,1.999 0.667,4.017 0.227,6.002 0.099,0.583 0.203,1.162 0.312,1.735 4.396,-5.601 4.308,-13.193 3.891,-19.947 3.115,3.321 5.544,7.215 7.639,11.228 3.23,6.34 5.753,13.075 7.28,20.017 -5.587,-1.773 -10.169,-5.597 -14.683,-9.176 0.043,0.809 0.104,1.608 0.189,2.403 1.91,3.053 3.46,6.402 6.179,8.871"
             style="fill:#959599;fill-opacity:1;fill-rule:nonzero;stroke:none"
             id="path186" /></g><g
           id="g188"
           transform="translate(573.3047,463.6704)"><path
             d="m 0,0 c 1.106,0.968 2.369,1.75 3.754,2.248 -3.872,-6.274 -6.425,-13.583 -6.042,-21.016 -0.147,-7.948 4.851,-15.046 11.034,-19.656 -0.714,0.086 -1.436,0.09 -2.113,0.331 -4.884,1.965 -9.006,5.812 -11.1,10.643 -2.383,5.071 -2.397,10.804 -1.929,16.264 -3.479,-5.61 -4.278,-12.378 -4.945,-18.813 -1.106,0.169 -2.213,0.324 -3.323,0.451 -0.137,0.174 -0.421,0.522 -0.558,0.701 -3.432,1.031 -7.237,0.673 -10.4,-1.016 C -15.86,-20.954 -10.396,-8.297 0,0"
             style="fill:#bebec0;fill-opacity:1;fill-rule:nonzero;stroke:none"
             id="path190" /></g><g
           id="g192"
           transform="translate(594.8232,447.1421)"><path
             d="M 0,0 C 1.451,3.476 4.251,6.317 7.418,8.312 6.146,5.494 3.712,3.048 3.679,-0.202 2.18,-1.849 1.06,-3.768 -0.037,-5.687 -0.576,-3.81 -0.325,-1.881 0,0"
             style="fill:#bebec0;fill-opacity:1;fill-rule:nonzero;stroke:none"
             id="path194" /></g><g
           id="g196"
           transform="translate(585.208,438.8452)"><path
             d="m 0,0 c 1.437,-2.079 2.298,-4.501 3.791,-6.547 0.284,-0.452 1.168,-0.974 1.522,-0.307 0.672,0.914 0.966,2.038 1.433,3.053 1.083,-3.476 0.019,-7.586 -2.548,-10.173 -1.593,1.637 -2.094,3.932 -2.694,6.054 C 0.875,-5.311 0.242,-2.681 0,0"
             style="fill:#bebec0;fill-opacity:1;fill-rule:nonzero;stroke:none"
             id="path198" /></g><g
           id="g200"
           transform="translate(530.584,425.3506)"><path
             d="M 0,0 C 4.316,0.396 8.391,2.103 12.021,4.397 8.467,0.452 6.987,-4.793 6.022,-9.887 4.703,-8.513 4.316,-6.604 3.385,-4.999 2.383,-3.25 1.087,-1.693 0,0"
             style="fill:#bebec0;fill-opacity:1;fill-rule:nonzero;stroke:none"
             id="path202" /></g><g
           id="g204"
           transform="translate(546.7324,416.2451)"><path
             d="M 0,0 C 3.343,3.626 8.462,5.342 13.341,4.952 10.906,3.795 8.15,3.297 5.989,1.6 2.156,-1.129 0.874,-5.88 -0.714,-10.046 c -1.342,-3.378 -2.396,-7.024 -4.798,-9.841 -1.437,-1.82 -4.425,-1.844 -5.914,-0.08 -1.423,1.726 -1.9,4.102 -1.72,6.288 0.775,-0.926 1.281,-2.755 2.831,-2.379 1.693,0.78 2.524,2.605 3.526,4.068 C -4.292,-8.119 -3.233,-3.396 0,0"
             style="fill:#bebec0;fill-opacity:1;fill-rule:nonzero;stroke:none"
             id="path206" /></g><g
           id="g208"
           transform="translate(589.1553,401.3906)"><path
             d="m 0,0 c 1.437,0.377 2.634,-0.7 3.721,-1.467 3.134,-2.366 4.893,-6.214 5.03,-10.085 0.298,-5.94 -1.995,-11.552 -4.345,-16.881 8.071,3.975 13.819,11.534 16.897,19.811 1.129,-2.018 1.21,-4.392 1.218,-6.65 0.039,-1.873 -0.709,-3.749 -0.189,-5.607 l 0.024,-0.117 c -0.487,-1.017 -0.832,-2.136 -1.541,-3.029 -7.686,-4.154 -15.34,-8.415 -22.586,-13.302 -2.814,-1.873 -5.31,-4.153 -7.919,-6.275 1.044,3.833 3.03,7.428 5.767,10.32 5.011,5.489 9.398,12.568 8.599,20.282 -0.095,1.745 -0.884,3.334 -1.135,5.046 -0.213,-0.273 -0.42,-0.55 -0.624,-0.827 L 2.775,-8.964 c -0.136,0.272 -0.416,0.818 -0.552,1.09 0.298,0.043 0.893,0.136 1.195,0.184 C 2.397,-5.076 1.428,-2.422 0,0"
             style="fill:#bebec0;fill-opacity:1;fill-rule:nonzero;stroke:none"
             id="path210" /></g><g
           id="g212"
           transform="translate(522.4814,394.8145)"><path
             d="M 0,0 C 2.292,1.054 4.056,2.884 5.857,4.586 5.781,2.828 5.568,1.04 4.803,-0.573 3.976,-2.554 2.439,-4.097 1.148,-5.775 c 4.936,-0.56 10.321,-1.75 13.8,-5.56 -4.378,-0.296 -8.802,-0.47 -13.076,-1.561 -0.596,-0.132 -1.186,-0.282 -1.773,-0.465 -0.766,0.945 -2.109,0.376 -3.129,0.347 -3.646,-0.292 -7.219,-1.449 -10.226,-3.542 -0.496,0.617 -0.997,1.233 -1.494,1.845 0.818,3.438 1.995,6.781 2.865,10.211 1.494,-0.636 3.12,-0.979 4.741,-1.021 0.199,0.122 0.591,0.367 0.786,0.488 -0.733,0.847 -1.599,1.567 -2.501,2.225 C -5.905,-1.871 -2.757,-1.495 0,0"
             style="fill:#bebec0;fill-opacity:1;fill-rule:nonzero;stroke:none"
             id="path214" /></g><g
           id="g216"
           transform="translate(572.8467,392.2891)"><path
             d="m 0,0 c 0.534,0.678 1.106,1.322 1.73,1.919 0.382,-4.881 -2.199,-9.962 -6.646,-12.195 -4.133,-1.995 -8.878,-2.103 -13.374,-1.827 -6.17,0.504 -12.467,2.31 -17.298,6.294 -0.875,0.913 -2.33,1.742 -2.099,3.195 2.487,-2.236 6.486,-3.246 9.469,-1.394 1.716,0.942 2.52,3.176 4.633,3.41 0.534,-0.408 1.135,-0.596 1.801,-0.559 3.413,0.056 6.784,0.659 10.059,1.59 -0.77,-2.771 -3.541,-3.964 -5.884,-5.14 4.453,-0.349 9.052,0.258 13.232,1.866 0.566,0.188 1.152,0.269 1.753,0.24 -3.465,-2.469 -7.89,-3.791 -12.149,-3.174 -2.204,0.273 -4.775,0.305 -6.391,-1.478 4.533,-1.181 9.439,-1.552 14.04,-0.471 3.593,0.805 6.542,3.491 7.993,6.816 -0.17,0.175 -0.51,0.532 -0.68,0.711 z"
             style="fill:#bebec0;fill-opacity:1;fill-rule:nonzero;stroke:none"
             id="path218" /></g><g
           id="g220"
           transform="translate(530.1396,380.4326)"><path
             d="M 0,0 C 0.927,0.145 1.872,0.174 2.813,0.159 -3.678,-11.938 -6.883,-25.4 -10.92,-38.415 c -1.059,0.038 -2.123,0.102 -3.178,0.202 2.416,7.028 4.974,14.026 6.704,21.256 0.44,2.008 0.931,4.055 0.724,6.115 -0.095,1.312 -1.239,2.327 -2.477,2.592 -2.823,0.602 -5.631,-0.359 -8.425,-0.683 C -12.948,-4.041 -6.524,-1.299 0,0"
             style="fill:#bebec0;fill-opacity:1;fill-rule:nonzero;stroke:none"
             id="path222" /></g><g
           id="g224"
           transform="translate(530.9336,365.8086)"><path
             d="M 0,0 C 1.39,4.158 2.213,8.551 4.368,12.417 4.406,10.15 3.886,7.926 3.593,5.687 2.065,-4.789 0.699,-15.287 -0.218,-25.832 c -0.553,-5.324 0.033,-10.767 -1.285,-16.006 -0.402,-1.482 -0.719,-3.085 -1.81,-4.242 0.174,1.49 0.391,2.972 0.509,4.467 0.648,4.577 -0.221,9.68 -3.871,12.86 0.057,1.317 0.165,2.639 0.468,3.923 C -4.363,-16.5 -2.652,-8.123 0,0"
             style="fill:#bebec0;fill-opacity:1;fill-rule:nonzero;stroke:none"
             id="path226" /></g><g
           id="g228"
           transform="translate(549.6348,360.7715)"><path
             d="m 0,0 c 1.915,1.048 4.52,1.086 6.099,-0.588 2.827,-2.79 4.836,-6.364 6.297,-10.018 l -0.591,0.064 C 9.483,-7.982 6.609,-5.226 2.855,-5.49 -0.794,-5.259 -3.947,-7.29 -6.59,-9.554 -6.821,-9.563 -7.279,-9.577 -7.512,-9.587 -6.064,-5.762 -3.734,-1.962 0,0"
             style="fill:#bebec0;fill-opacity:1;fill-rule:nonzero;stroke:none"
             id="path230" /></g><g
           id="g232"
           transform="translate(613.9697,333.3965)"><path
             d="m 0,0 c 5.305,-5.307 8.325,-12.545 9.219,-19.915 0.907,-6.256 0.193,-12.577 -0.799,-18.776 1.904,2.032 3.209,4.51 4.675,6.853 2.179,3.526 4.103,7.2 5.989,10.888 0.322,0.678 0.775,1.265 1.305,1.788 -0.037,-4.586 -1.333,-9.05 -2.803,-13.363 -2.794,-8.274 -6.944,-15.997 -11.299,-23.546 l 0.652,-0.159 c -8.598,-4.902 -18.128,-8.021 -27.787,-10.089 0.279,0.215 0.553,0.44 0.827,0.667 1.074,1.566 1.613,3.4 2.284,5.154 6.566,17.508 10.054,36.388 8.481,55.08 0.052,0.555 0.184,1.09 0.392,1.603 1.466,-3.146 2.529,-6.477 3.688,-9.75 0.841,-4.112 1.777,-8.424 1.006,-12.601 -1.111,-2.093 -0.761,-4.491 -0.817,-6.765 -0.029,-3.287 -0.058,-6.575 -0.109,-9.867 -0.019,-3.005 -0.444,-6.011 -0.109,-9.016 7.653,11.363 10.888,25.616 8.533,39.123 -0.624,3.265 -1.271,6.586 -2.799,9.573 -0.256,0.715 -0.501,1.429 -0.667,2.164 C -0.104,-0.721 -0.033,-0.239 0,0"
             style="fill:#bebec0;fill-opacity:1;fill-rule:nonzero;stroke:none"
             id="path234" /></g><g
           id="g236"
           transform="translate(505.8838,322.2715)"><path
             d="M 0,0 C 0.09,2.164 -0.813,4.704 0.393,6.618 0.127,4.229 0.288,1.807 0.728,-0.555 1.654,-5.469 4.613,-9.646 7.483,-13.64 c 0.766,-2.77 0.331,-7.078 -3.04,-7.797 -2.297,-0.019 -4.486,-1.116 -6.797,-0.698 -4.345,2.677 -7.99,6.605 -10.245,11.157 1.447,-0.748 2.746,-1.763 4.25,-2.412 -1.952,3.669 -3.243,7.78 -3.063,11.966 1.674,-3.067 3.413,-6.2 6.169,-8.462 1.626,-1.289 3.555,-2.935 5.791,-2.29 0.081,0.803 0.128,1.617 -0.033,2.407 C -0.076,-6.557 -0.402,-3.254 0,0"
             style="fill:#bebec0;fill-opacity:1;fill-rule:nonzero;stroke:none"
             id="path238" /></g><g
           id="g240"
           transform="translate(515.5459,325.9932)"><path
             d="m 0,0 c 0.402,-0.296 0.709,-0.663 0.917,-1.11 1.168,-3.668 2.969,-7.996 0.737,-11.609 0.838,0.029 1.684,0.053 2.525,0.132 0.298,-1.341 -0.997,-2.183 -1.909,-2.902 -1.139,-1.03 -2.638,0.169 -3.187,1.247 -1.182,2.332 -1.839,4.98 -1.744,7.6 0.85,-1.641 1.276,-3.588 2.732,-4.848 C 1.234,-7.729 -0.657,-3.814 0,0"
             style="fill:#bebec0;fill-opacity:1;fill-rule:nonzero;stroke:none"
             id="path242" /></g><g
           id="g244"
           transform="translate(543.4326,321.3691)"><path
             d="M 0,0 C 3.287,1.383 6.798,2.164 10.282,2.869 8.094,1.105 5.38,0.235 2.987,-1.204 c -3.275,-1.834 -6.58,-4.167 -8.22,-7.648 0.68,-0.14 1.362,-0.291 2.047,-0.442 -1.229,-4.524 -4.817,-7.949 -8.382,-10.795 -2.364,-1.683 -4.609,-3.729 -7.483,-4.492 3.555,3.044 6.656,6.68 8.571,10.97 1.021,2.059 1.668,4.265 2.481,6.395 C -5.715,-4.459 -3.333,-1.528 0,0"
             style="fill:#bebec0;fill-opacity:1;fill-rule:nonzero;stroke:none"
             id="path246" /></g><g
           id="g248"
           transform="translate(543.1826,311.0967)"><path
             d="M 0,0 C 0.326,0.88 0.662,1.75 1.025,2.605 1.829,-1.934 1.603,-6.58 0.383,-11.021 l 0.599,-0.003 c -1.016,-0.815 -1.649,-2.024 -2.774,-2.715 -1.234,-0.912 -2.822,-0.959 -4.26,-1.313 3.125,4.375 5.092,9.459 6.501,14.606 z"
             style="fill:#bebec0;fill-opacity:1;fill-rule:nonzero;stroke:none"
             id="path250" /></g><g
           id="g252"
           transform="translate(503.2314,428.6045)"><path
             d="m 0,0 c 3.139,-1.057 6.4,-1.786 9.469,-3.027 3.711,-5.636 7.403,-11.855 7.483,-18.796 0.019,-0.786 0.033,-1.571 0.062,-2.361 -0.969,-0.983 -1.948,-2.146 -3.395,-2.376 -1.791,-0.306 -3.559,0.324 -5.242,0.852 C 7.753,-20.107 6.434,-14.599 4.718,-9.236 3.663,-5.921 2.062,-2.802 0,0"
             style="fill:#ec2227;fill-opacity:1;fill-rule:nonzero;stroke:none"
             id="path254" /></g><g
           id="g256"
           transform="translate(712.8232,425.3271)"><path
             d="M 0,0 C 2.563,-2.192 4.779,-4.75 6.94,-7.333 17,-19.68 23.778,-34.769 25.75,-50.573 c -0.028,1.548 -0.075,3.095 -0.16,4.642 -1.027,13.58 -1.812,27.178 -2.837,40.757 4.964,-15.729 7.573,-32.167 8.481,-48.616 0.44,-10.894 0.147,-21.872 -1.635,-32.643 -0.932,2.936 -1.821,5.885 -2.729,8.824 -1.422,-16.461 -6.362,-32.591 -14.365,-47.069 -2.028,-3.649 -4.175,-7.257 -6.737,-10.573 1.895,5.283 2.165,10.954 2.254,16.506 -0.316,3.541 -0.056,7.163 -0.945,10.63 -2.865,-13.378 -11.96,-24.606 -22.64,-32.826 -3.077,-2.333 -6.287,-4.507 -9.713,-6.304 6.811,8.67 10.584,19.789 9.822,30.814 -6.108,-1.938 -11.218,-6.011 -16.04,-10.075 -3.271,-2.827 -6.381,-5.833 -9.346,-8.974 -0.193,6.711 2.313,13.104 4.837,19.209 2.052,4.849 4.477,9.533 7.015,14.143 -7.857,-5.785 -15.728,-11.557 -23.632,-17.28 2.439,4.251 4.85,8.554 6.467,13.197 2.609,6.967 3.362,14.436 3.678,21.811 0.161,2.196 0.146,4.46 0.794,6.576 2.292,2.769 4.312,6.424 3.074,10.102 -0.687,-1.016 -0.511,-2.366 -1.15,-3.419 -0.86,-2.333 -2.969,-3.805 -4.968,-5.109 -2.978,-1.904 -6.514,-2.704 -9.493,-4.613 -4.884,-2.978 -9.317,-6.806 -12.584,-11.515 0.227,3.524 0.573,7.107 1.924,10.404 1.621,3.886 4.58,6.976 7.106,10.287 2.221,2.982 4.977,5.622 6.551,9.045 1.778,3.57 2.019,7.729 1.257,11.595 -0.798,4.242 -2.538,8.235 -4.433,12.092 l 0.047,0.184 c 1.891,7.347 1.863,15.07 0.615,22.521 5.583,-9.939 9.856,-20.912 10.296,-32.403 0.119,-9.634 -3.414,-19.012 -8.827,-26.895 3.102,1.933 5.721,4.51 8.241,7.131 6.249,6.706 10.825,15.022 12.843,23.964 2.959,-5.249 4.926,-10.997 6.751,-16.717 2.327,-8.143 3.796,-16.951 1.348,-25.248 3.29,3.908 5.502,8.579 7.487,13.24 3.315,8.537 5.101,17.696 4.983,26.858 0.133,9.943 -1.909,19.791 -4.945,29.227 3.092,-1.28 5.914,-3.118 8.746,-4.883 C -1.428,-25.47 3.905,-29.482 7.124,-35.149 8.77,-23.062 5.857,-10.631 0,0"
             style="fill:#ec2227;fill-opacity:1;fill-rule:nonzero;stroke:none"
             id="path258" /></g><g
           id="g260"
           transform="translate(516.4443,424.3159)"><path
             d="M 0,0 C 2.217,-0.338 4.377,-1.133 6.523,-1.806 7.866,-3.151 8.896,-4.896 9.351,-6.739 9.076,-9.351 8.429,-12.168 6.888,-14.318 5.801,-9.068 3.035,-4.355 0,0"
             style="fill:#d91f26;fill-opacity:1;fill-rule:nonzero;stroke:none"
             id="path262" /></g><g
           id="g264"
           transform="translate(725.3281,300.6494)"><path
             d="M 0,0 C 8.003,14.478 12.943,30.607 14.365,47.068 15.273,44.13 16.162,41.181 17.094,38.245 13.443,11.13 1.167,-14.989 -18.409,-34.34 c -10.76,-10.836 -23.467,-19.647 -37.039,-26.64 -14.621,-7.329 -30.085,-13.66 -46.428,-15.767 6.341,4.93 12.6,9.967 18.92,14.92 -6.515,-3.298 -13.459,-6.03 -20.815,-6.605 -4.416,-0.399 -8.887,-0.079 -13.18,1.036 4.458,0.498 8.911,1.627 12.68,4.143 6.503,4.22 11.066,10.894 13.874,18.001 -2.974,-2.465 -6.283,-4.788 -10.178,-5.452 -6.67,-1.377 -13.516,1.392 -18.664,5.528 3.602,0.969 7.266,1.679 10.859,2.69 -6.254,1.138 -12.433,2.633 -18.635,4.003 6.75,2.013 13.553,4.096 19.907,7.211 11.113,5.164 21.155,12.576 29.366,21.64 4.703,4.529 8.948,9.52 12.617,14.902 7.904,5.723 15.775,11.495 23.632,17.28 -2.538,-4.611 -4.963,-9.294 -7.015,-14.144 -2.524,-6.104 -5.03,-12.497 -4.837,-19.209 2.965,3.142 6.075,6.148 9.346,8.975 4.822,4.063 9.933,8.137 16.04,10.075 0.762,-11.025 -3.011,-22.144 -9.822,-30.814 3.427,1.796 6.636,3.97 9.714,6.303 10.679,8.221 19.774,19.449 22.639,32.826 C -4.539,13.096 -4.799,9.474 -4.482,5.933 -4.572,0.381 -4.842,-5.29 -6.737,-10.573 -4.175,-7.257 -2.028,-3.649 0,0"
             style="fill:#d91f26;fill-opacity:1;fill-rule:nonzero;stroke:none"
             id="path266" /></g><g
           id="g268"
           transform="translate(570.2227,389.6885)"><path
             d="m 0,0 c 0.988,0.738 1.872,1.603 2.813,2.403 0.17,-0.178 0.51,-0.536 0.68,-0.711 -1.451,-3.325 -4.4,-6.01 -7.993,-6.815 -4.601,-1.081 -9.507,-0.71 -14.04,0.471 1.616,1.783 4.187,1.751 6.391,1.477 C -7.89,-3.791 -3.465,-2.47 0,0"
             style="fill:#1f2021;fill-opacity:1;fill-rule:nonzero;stroke:none"
             id="path270" /></g><g
           id="g272"
           transform="translate(503.5293,300.1367)"><path
             d="M 0,0 C 2.312,-0.418 4.5,0.679 6.798,0.697 6.306,-1.218 3.801,-1.476 2.146,-1.345 1.012,-1.104 -0.521,-1.071 -1.092,0.091 -0.823,0.067 -0.274,0.024 0,0"
             style="fill:#1a1a1b;fill-opacity:1;fill-rule:nonzero;stroke:none"
             id="path274" /></g><g
           id="g276"
           transform="translate(498.9297,266.5117)"><path
             d="m 0,0 c 3.011,-0.682 5.933,-1.727 8.939,-2.441 17.822,-4.441 36.211,-6.6 54.578,-6.505 2.283,-0.009 4.613,0.499 6.849,-0.216 -5.455,-2.253 -11.123,-3.98 -16.536,-6.326 9.224,-0.603 18.465,-1.002 27.674,-1.736 -6.954,-1.88 -13.922,-3.707 -20.875,-5.579 5.913,-2.281 11.732,-4.816 17.713,-6.918 -1.509,-0.099 -3.021,0.014 -4.515,0.234 -7.11,0.64 -14.216,1.379 -21.32,2.056 3.125,-3.288 6.543,-6.294 9.723,-9.534 -2.06,-0.23 -3.914,0.809 -5.819,1.388 C 38.178,-29.152 20.791,-19.773 6.429,-6.768 4.212,-4.596 1.749,-2.582 0,0"
             style="fill:#ffffff;fill-opacity:1;fill-rule:nonzero;stroke:none"
             id="path278" /></g></g></g></g></svg>
